<svg width="53" height="49" viewBox="0 0 53 49" fill="none" xmlns="http://www.w3.org/2000/svg">
<rect width="52.2635" height="48.7476" fill="black" fill-opacity="0" transform="translate(0.736328)"/>
<rect width="52.2635" height="48.7476" fill="black" fill-opacity="0" transform="translate(0.736328)"/>
<path d="M36.854 9.92439C36.854 9.51744 36.7718 9.12442 36.6086 8.75671C36.4467 8.3947 36.2262 8.07256 35.9464 7.79788C35.6698 7.52448 35.3441 7.3055 34.9769 7.14474C34.6022 6.98146 34.2013 6.89918 33.7844 6.89981C33.3689 6.89981 32.9692 6.97956 32.5958 7.13841C32.2274 7.29537 31.8998 7.51182 31.6212 7.78649C31.3421 8.06053 31.1222 8.38267 30.9616 8.74595V8.74532C30.7971 9.11366 30.7149 9.51048 30.7149 9.92439C30.7123 10.1611 30.8118 10.3946 30.9826 10.5585C31.1496 10.7282 31.3886 10.825 31.6276 10.8218C31.8679 10.825 32.1094 10.7294 32.2764 10.5585V10.5592C32.4485 10.3953 32.548 10.1592 32.5441 9.92439C32.5441 9.74718 32.5766 9.59085 32.6397 9.44466C32.7067 9.2934 32.794 9.16745 32.9061 9.0586C33.0196 8.94784 33.1503 8.86177 33.3045 8.79595C33.4524 8.73266 33.6098 8.70165 33.7851 8.70101C33.9559 8.70101 34.1089 8.73329 34.258 8.79721C34.4122 8.8643 34.5442 8.95227 34.6576 9.06429C34.7711 9.17631 34.8603 9.30479 34.9291 9.45795C34.9941 9.60478 35.026 9.75667 35.026 9.92375C35.0235 10.2769 34.9087 10.5471 34.6551 10.8028L34.6474 10.8098L30.9603 14.959L30.9628 14.9609C30.8009 15.1255 30.7123 15.3527 30.7149 15.5811C30.7149 15.6995 30.7385 15.8185 30.7869 15.9292L30.7856 15.9267C30.8303 16.0337 30.8953 16.1305 30.9749 16.2115L30.98 16.2159L30.9762 16.2128C31.0597 16.2969 31.1604 16.3647 31.27 16.4096C31.3835 16.4571 31.5052 16.4792 31.6276 16.4792H35.9374C36.179 16.4824 36.4193 16.3862 36.5882 16.2159V16.2153C36.759 16.0514 36.8572 15.8166 36.8546 15.5811C36.8572 15.3457 36.759 15.1115 36.5895 14.9457V14.9451C36.4212 14.7736 36.1796 14.6742 35.9374 14.678H33.6665L35.9706 12.0439V12.0433C36.2498 11.7598 36.4696 11.4402 36.6213 11.0876V11.0883C36.7769 10.7269 36.854 10.3358 36.854 9.92439Z" fill="#602C8D"/>
<path d="M43.8184 13.9714L43.8204 13.9704H43.8184V13.9714Z" fill="#602C8D"/>
<path d="M43.1735 12.4287H42.7949V7.80292C42.7949 7.6833 42.7726 7.56242 42.7255 7.45167L42.7242 7.4504C42.6783 7.34281 42.6108 7.24408 42.5247 7.16244L42.5234 7.1618C42.4412 7.08459 42.3469 7.0213 42.2424 6.97573C42.1302 6.92574 42.0059 6.90042 41.8835 6.90042C41.7344 6.90042 41.5846 6.9346 41.4514 7.00421C41.3246 7.07067 41.2136 7.1656 41.1327 7.28079L41.1263 7.28901L37.2575 12.8059L37.2601 12.8072C37.1454 12.9565 37.0861 13.1426 37.088 13.3268C37.0842 13.5628 37.1753 13.8008 37.348 13.9672C37.5176 14.1381 37.7591 14.228 37.9982 14.2248H40.967V15.5824C40.9632 15.8178 41.0626 16.0526 41.2321 16.2165L41.234 16.2172C41.401 16.3855 41.64 16.483 41.8791 16.4804C42.1193 16.4836 42.3596 16.3874 42.5292 16.2172V16.2165C42.7 16.0526 42.7994 15.8178 42.7956 15.5824V14.2248H43.1742C43.4119 14.228 43.6497 14.1362 43.8192 13.971C43.997 13.8065 44.0945 13.5647 44.0907 13.3268C44.0945 13.0888 43.9977 12.8477 43.8192 12.6825C43.649 12.5167 43.4113 12.4255 43.1735 12.4287ZM40.9676 12.4287H39.7464L40.9676 10.6864V12.4287Z" fill="#602C8D"/>
<path d="M43.8184 12.6819V12.6829H43.8204L43.8184 12.6819Z" fill="#602C8D"/>
<path d="M32.5099 32.9659C31.6795 32.3103 30.8031 31.9539 29.9981 31.9539C29.2199 31.9539 28.5079 32.2868 27.97 33.0052L25.5066 36.3557C23.149 34.4956 21.0514 32.6577 19.061 30.692C17.0654 28.73 15.2004 26.6636 13.3119 24.3403L16.7129 21.9132C18.1954 20.8341 18.0609 19.0487 16.7531 17.4399L10.9097 10.2256C10.2673 9.59653 9.41957 9.28009 8.57188 9.28009C7.74139 9.28009 6.91027 9.58324 6.26908 10.194L1.84961 14.285C1.3053 14.8058 0.948382 15.4748 0.789041 16.2735C-0.031882 20.3772 8.93645 31.2862 13.6963 35.9772C18.2528 40.4657 28.5825 48.7476 33.1161 48.7476C33.3213 48.7476 33.5144 48.7305 33.6948 48.6957C34.5049 48.5388 35.1837 48.1869 35.7127 47.6515L39.8645 43.2966C41.1169 42.0194 41.0959 39.9771 39.832 38.7246L32.5099 32.9659ZM38.4629 41.9985L34.3252 46.3389C34.0715 46.592 33.7426 46.7547 33.3232 46.8363C33.2843 46.8439 33.2187 46.8521 33.1167 46.8521C29.6597 46.8521 20.1132 39.6176 15.0577 34.6368C13.0073 32.6172 9.59548 28.8325 6.72352 24.8137C2.40858 18.7766 2.63676 16.8399 2.67627 16.638C2.75977 16.2254 2.92421 15.9026 3.18043 15.6526L7.60563 11.556C7.8644 11.3104 8.20667 11.1756 8.57188 11.1756C8.91541 11.1756 9.23792 11.2946 9.48904 11.511L15.2514 18.6253C15.7467 19.2342 15.885 19.7329 15.8512 19.9968C15.8423 20.0639 15.8238 20.2031 15.5835 20.3778L12.1838 22.8049C11.7568 23.1093 11.4757 23.572 11.4056 24.0859C11.3348 24.5998 11.4814 25.1194 11.8103 25.5244C13.76 27.9231 15.6868 30.0521 17.6983 32.0305C19.7136 34.021 21.8749 35.9196 24.3033 37.8354C24.6468 38.1062 25.0713 38.2512 25.506 38.2512C25.592 38.2512 25.6781 38.2455 25.7635 38.2341C26.2848 38.1645 26.7558 37.8879 27.0643 37.4677L29.5182 34.1311C29.7126 33.8716 29.8604 33.8494 29.9975 33.8494C30.3448 33.8494 30.8343 34.0722 31.3098 34.4475L38.5273 40.1226C38.997 40.6517 38.9817 41.4681 38.4629 41.9985Z" fill="#602C8D"/>
<path d="M49.4734 0H24.0216C22.0745 0.00379733 20.4989 1.55754 20.4951 3.47519V20.5549C20.4989 22.4726 22.0751 24.0466 24.0216 24.0497L36.4241 24.0352V29.235C36.4241 29.6065 36.6446 29.9438 36.9881 30.0976C37.3317 30.2514 37.7339 30.1926 38.0188 29.9489L44.7047 24.0472L49.4734 24.0497C51.4193 24.046 52.9961 22.4922 53 20.5746V3.47519C52.9968 1.55754 51.4193 0.00316444 49.4734 0ZM51.0758 20.5746C51.0758 21.0087 50.8979 21.3992 50.6041 21.6897C50.3103 21.9789 49.9132 22.1542 49.4741 22.1542H49.469L44.3389 22.153C44.1088 22.1536 43.8844 22.2372 43.7104 22.3872L38.3476 27.1496V23.089C38.3476 22.5656 37.9193 22.1422 37.3878 22.141L24.0229 22.1542H24.0216C23.5812 22.1542 23.1848 21.9789 22.8903 21.6897C22.5965 21.3992 22.4187 20.9891 22.4187 20.5549V3.47519C22.4187 3.04103 22.5965 2.65054 22.8903 2.36004C23.1854 2.07081 23.5812 1.8955 24.0216 1.8955H49.4741C49.9132 1.8955 50.3109 2.07081 50.6041 2.36004C50.8979 2.65054 51.0758 3.04103 51.0758 3.47519V20.5746Z" fill="#602C8D"/>
</svg>
