<svg width="19" height="19" viewBox="0 0 19 19" fill="none" xmlns="http://www.w3.org/2000/svg">
<rect width="19" height="19" fill="black" fill-opacity="0"/>
<rect width="19" height="19" fill="black" fill-opacity="0"/>
<path fill-rule="evenodd" clip-rule="evenodd" d="M9.5 0C14.8023 0 19 4.27132 19 9.5C19 14.8023 14.8023 19 9.5 19C4.27132 19 0 14.8023 0 9.5C0 4.27132 4.27132 0 9.5 0ZM2.57752 14.0659C3.9031 12.2248 5.44961 10.4574 7.8062 11.7829C9.13178 12.5194 10.0155 12.4457 11.4147 11.7093C13.5504 10.4574 15.3178 12.4457 16.4961 14.0659C17.3062 12.814 17.8217 11.1938 17.8217 9.5C17.8217 4.93411 14.1395 1.17829 9.5 1.17829C4.93411 1.17829 1.17829 4.93411 1.17829 9.5C1.17829 11.1938 1.6938 12.814 2.57752 14.0659ZM9.5 3.60853C11.562 3.60853 13.1822 5.22868 13.1822 7.2907C13.1822 9.27907 11.562 10.8992 9.5 10.8992C7.51163 10.8992 5.89147 9.27907 5.89147 7.2907C5.89147 5.22868 7.51163 3.60853 9.5 3.60853Z" fill="white"/>
</svg>
