<svg width="52" height="52" viewBox="0 0 52 52" fill="none" xmlns="http://www.w3.org/2000/svg">
<rect width="52" height="52" fill="black" fill-opacity="0"/>
<path d="M47.9977 28.5999C47.0097 28.5979 46.0575 28.9694 45.3319 29.6399L35.9424 38.3066C35.4628 38.7521 34.8325 38.9997 34.1779 38.9999H21.0106C20.5509 38.9999 20.11 38.8173 19.7849 38.4922C19.4599 38.1672 19.2773 37.7263 19.2773 37.2666C19.2773 36.8069 19.4599 36.366 19.7849 36.0409C20.11 35.7158 20.5509 35.5332 21.0106 35.5332H30.1227C31.0421 35.5332 31.9239 35.168 32.574 34.5179C33.2242 33.8677 33.5894 32.986 33.5894 32.0665C33.5894 31.1471 33.2242 30.2654 32.574 29.6152C31.9239 28.9651 31.0421 28.5999 30.1227 28.5999H15.9822C13.8704 28.5992 11.801 29.193 10.0109 30.3133L6.93333 32.2399V31.1999H0V52H6.93333V50.2666H25.2053C25.7789 50.2666 26.3517 50.2228 26.9187 50.1358L34.034 49.0412C36.4038 48.6816 38.5956 47.5709 40.287 45.8726L50.8482 35.3096C51.2145 34.9455 51.5048 34.5124 51.7026 34.0353C51.9003 33.5582 52.0014 33.0466 52 32.5302C51.9973 32.0088 51.8914 31.493 51.6884 31.0127C51.4854 30.5323 51.1894 30.0969 50.8173 29.7316C50.4453 29.3662 50.0046 29.0781 49.5207 28.8839C49.0367 28.6896 48.5191 28.5931 47.9977 28.5999ZM5.2 50.2666H1.73333V32.9332H5.2V50.2666ZM49.6227 34.0842L39.0615 44.6471C37.6302 46.0841 35.7757 47.024 33.7705 47.3286L26.6552 48.4232C26.1754 48.4966 25.6907 48.5334 25.2053 48.5333H6.93333V34.28L10.9304 31.7823C12.445 30.8349 14.1957 30.3327 15.9822 30.3332H30.1227C30.5824 30.3332 31.0233 30.5158 31.3484 30.8409C31.6734 31.1659 31.8561 31.6068 31.8561 32.0665C31.8561 32.5263 31.6734 32.9671 31.3484 33.2922C31.0233 33.6173 30.5824 33.7999 30.1227 33.7999H21.0106C20.0912 33.7999 19.2094 34.1651 18.5593 34.8153C17.9092 35.4654 17.5439 36.3471 17.5439 37.2666C17.5439 38.186 17.9092 39.0678 18.5593 39.7179C19.2094 40.368 20.0912 40.7333 21.0106 40.7333H34.1779C35.2676 40.7344 36.3176 40.324 37.1176 39.584L46.5079 30.9173C46.934 30.5303 47.4925 30.3218 48.0679 30.3349C48.5026 30.3348 48.9275 30.4635 49.2889 30.7049C49.6504 30.9463 49.9321 31.2895 50.0985 31.6911C50.2648 32.0926 50.3083 32.5345 50.2235 32.9608C50.1387 33.3871 49.9293 33.7786 49.6219 34.0859L49.6227 34.0842Z" fill="white"/>
<path d="M19.7661 15.0408L16.5187 23.9675C16.4541 24.1451 16.4493 24.339 16.5051 24.5195C16.5609 24.7001 16.6742 24.8575 16.8277 24.9677C16.9812 25.0779 17.1665 25.1349 17.3554 25.1301C17.5443 25.1252 17.7265 25.0587 17.8741 24.9408L25.9697 18.4633L33.2237 24.9104C33.3632 25.0344 33.5391 25.11 33.7251 25.1259C33.911 25.1419 34.0972 25.0974 34.2558 24.999C34.4145 24.9006 34.5371 24.7537 34.6055 24.58C34.6739 24.4063 34.6844 24.2152 34.6355 24.0351L32.1915 15.0737L38.6533 10.2264C38.7988 10.1173 38.9063 9.96514 38.9606 9.79151C39.0148 9.61789 39.013 9.4316 38.9555 9.25903C38.898 9.08647 38.7876 8.93638 38.6401 8.83002C38.4925 8.72366 38.3152 8.66643 38.1333 8.66643H30.0534L26.8051 0.544848C26.7408 0.384013 26.6298 0.246142 26.4863 0.149024C26.3429 0.0519072 26.1737 0 26.0004 0C25.8272 0 25.658 0.0519072 25.5145 0.149024C25.3711 0.246142 25.2601 0.384013 25.1957 0.544848L21.9466 8.66643H13.8667C13.6848 8.66643 13.5075 8.72366 13.3599 8.83002C13.2124 8.93638 13.102 9.08647 13.0445 9.25903C12.987 9.4316 12.9852 9.61789 13.0394 9.79151C13.0937 9.96514 13.2011 10.1173 13.3467 10.2264L19.7661 15.0408ZM22.5333 10.3998C22.7067 10.3998 22.876 10.3479 23.0195 10.2507C23.1631 10.1536 23.2742 10.0156 23.3385 9.85463L26 3.19946L28.6615 9.85463C28.7258 10.0156 28.8369 10.1536 28.9804 10.2507C29.124 10.3479 29.2933 10.3998 29.4667 10.3998H35.5333L30.68 14.0398C30.541 14.144 30.4366 14.2875 30.3802 14.4518C30.3238 14.6161 30.318 14.7935 30.3637 14.9611L32.1967 21.6821L26.5763 16.6857C26.4235 16.5498 26.2276 16.4723 26.0231 16.4669C25.8187 16.4615 25.6189 16.5286 25.4592 16.6563L19.2036 21.6604L21.6155 15.0295C21.679 14.8547 21.6845 14.6641 21.6313 14.4858C21.5781 14.3076 21.4689 14.1512 21.32 14.0398L16.4667 10.3998H22.5333Z" fill="white"/>
</svg>
