<?xml version="1.0" encoding="UTF-8"?>
<svg width="49px" height="49px" viewBox="0 0 49 49" version="1.1" xmlns="http://www.w3.org/2000/svg" xmlns:xlink="http://www.w3.org/1999/xlink">
    <!-- Generator: Sketch 50.2 (55047) - http://www.bohemiancoding.com/sketch -->
    <title>Group</title>
    <desc>Created with Sketch.</desc>
    <defs></defs>
    <g id="Page-1" stroke="none" stroke-width="1" fill="none" fill-rule="evenodd">
        <g id="Group" transform="translate(1.000000, 1.000000)" stroke="#602C8D">
            <g id="Group-(4)" stroke-width="2">
                <circle id="Oval" cx="23.5" cy="23.5" r="23.5"></circle>
            </g>
            <g id="Vector-(2)" transform="translate(12.000000, 14.000000)" fill="#602C8D" fill-rule="nonzero" stroke-width="0.5">
                <path d="M6.47960727,17.045261 C8.04859833,15.4116868 9.89873352,13.463359 14.3248981,8.7914772 C14.3253564,8.79099345 14.3253564,8.79099345 14.3258147,8.79050971 C19.1140531,3.73645361 21.0550928,1.69364351 22.6410908,0.0490504222 C22.7820976,-0.103902953 22.974731,-0.207017964 23.1809346,-0.240411436 L23.1854952,-0.241106876 C23.5717086,-0.296358937 23.9737359,-0.0898543095 24.1513606,0.255860252 C24.3294744,0.602480957 24.2612233,1.04854963 23.9893584,1.32530668 C22.4074671,2.96573573 20.4855106,4.9896732 15.5913733,10.1586916 C15.5909321,10.1591576 15.5909321,10.1591576 15.590491,10.1596235 C10.7539962,15.2677619 8.79840858,17.3269899 7.20908468,18.9750709 C6.87668101,19.3173487 6.28748035,19.3439277 5.92344401,19.0315881 L0.119071055,13.9542107 C-0.303913766,13.6453834 -0.376478103,12.9853845 -0.0301498244,12.5931078 C0.314963734,12.2023441 0.980543505,12.186203 1.32988783,12.5459349 L6.47960943,17.0452629 Z" id="Shape"></path>
            </g>
        </g>
    </g>
</svg>