<svg width="42" height="55" viewBox="0 0 42 55" fill="none" xmlns="http://www.w3.org/2000/svg">
<rect width="40.5545" height="52.8071" fill="black" fill-opacity="0" transform="translate(1 1)"/>
<rect width="40.5545" height="52.8071" fill="black" fill-opacity="0" transform="translate(1 1)"/>
<path d="M0.900003 1.61339H0.9V1.61419V53.1931C0.9 53.5699 1.23758 53.907 1.61444 53.9071H40.9396C41.3165 53.907 41.654 53.5699 41.6541 53.1931V15.1249C41.6607 14.9346 41.5838 14.7467 41.453 14.6119L41.452 14.6108L27.9339 1.10208L27.934 1.10207L27.9328 1.10092C27.7971 0.96981 27.609 0.896133 27.4205 0.900157H1.61446C1.13824 0.900157 0.902533 1.29929 0.900003 1.61339ZM2.32891 2.32823H26.7071V15.123C26.7071 15.3124 26.7824 15.4939 26.9164 15.6278C27.0504 15.7617 27.2321 15.837 27.4216 15.837H40.2251V52.479H2.32891V2.32823ZM28.136 14.4089V3.33298L39.2196 14.4089H28.136ZM15.1325 24.8475C14.7379 24.8475 14.418 25.1671 14.418 25.5615V41.5264C14.418 41.9208 14.7379 42.2404 15.1325 42.2404C15.527 42.2404 15.8469 41.9208 15.8469 41.5264V25.5615C15.8469 25.1671 15.527 24.8475 15.1325 24.8475ZM27.4216 24.8475C27.0271 24.8475 26.7071 25.1671 26.7071 25.5615V41.5264C26.7071 41.9208 27.0271 42.2404 27.4216 42.2404C27.8161 42.2404 28.136 41.9208 28.136 41.5264V25.5615C28.136 25.1671 27.8161 24.8475 27.4216 24.8475ZM12.0602 27.3036C11.6657 27.3036 11.3457 27.6232 11.3457 28.0176V39.0703C11.3457 39.4647 11.6657 39.7843 12.0602 39.7843C12.4547 39.7843 12.7747 39.4647 12.7747 39.0703V28.0176C12.7747 27.6232 12.4547 27.3036 12.0602 27.3036ZM18.2048 27.3036C17.8102 27.3036 17.4903 27.6232 17.4903 28.0176V39.0703C17.4903 39.4647 17.8102 39.7843 18.2048 39.7843C18.5993 39.7843 18.9192 39.4647 18.9192 39.0703V28.0176C18.9192 27.6232 18.5993 27.3036 18.2048 27.3036ZM24.3493 27.3036C23.9548 27.3036 23.6348 27.6232 23.6348 28.0176V39.0703C23.6348 39.4647 23.9548 39.7843 24.3493 39.7843C24.7438 39.7843 25.0638 39.4647 25.0638 39.0703V28.0176C25.0638 27.6232 24.7438 27.3036 24.3493 27.3036ZM30.4939 27.3036C30.0993 27.3036 29.7794 27.6232 29.7794 28.0176V39.0703C29.7794 39.4647 30.0993 39.7843 30.4939 39.7843C30.8884 39.7843 31.2083 39.4647 31.2083 39.0703V28.0176C31.2083 27.6232 30.8884 27.3036 30.4939 27.3036ZM8.98792 29.7598C8.59339 29.7598 8.27346 30.0794 8.27346 30.4738V36.6141C8.27346 37.0086 8.59339 37.3282 8.98792 37.3282C9.38245 37.3282 9.70238 37.0086 9.70238 36.6141V30.4738C9.70238 30.0794 9.38245 29.7598 8.98792 29.7598ZM33.5661 29.7598C33.1716 29.7598 32.8517 30.0794 32.8517 30.4738V36.6141C32.8517 37.0086 33.1716 37.3282 33.5661 37.3282C33.9607 37.3282 34.2806 37.0086 34.2806 36.6141V30.4738C34.2806 30.0794 33.9607 29.7598 33.5661 29.7598ZM21.277 30.3738C20.8825 30.3738 20.5626 30.6934 20.5626 31.0878V36.0001C20.5626 36.3945 20.8825 36.7141 21.277 36.7141C21.6716 36.7141 21.9915 36.3945 21.9915 36.0001V31.0878C21.9915 30.6934 21.6716 30.3738 21.277 30.3738ZM5.91564 30.9878C5.52112 30.9878 5.20119 31.3074 5.20119 31.7019V35.3861C5.20119 35.7805 5.52112 36.1001 5.91564 36.1001C6.31017 36.1001 6.6301 35.7805 6.6301 35.3861V31.7019C6.6301 31.3074 6.31017 30.9878 5.91564 30.9878ZM36.6384 30.9878C36.2439 30.9878 35.924 31.3074 35.924 31.7019V35.3861C35.924 35.7805 36.2439 36.1001 36.6384 36.1001C37.0329 36.1001 37.3529 35.7805 37.3529 35.3861V31.7019C37.3529 31.3074 37.0329 30.9878 36.6384 30.9878Z" fill="#602C8D" stroke="#602C8D" stroke-width="0.2"/>
</svg>
