<svg width="50" height="42" viewBox="0 0 50 42" fill="none" xmlns="http://www.w3.org/2000/svg">
<rect width="49.7143" height="40.6753" fill="black" fill-opacity="0" transform="translate(0.207764 0.597412)"/>
<rect width="49.7143" height="40.6753" fill="black" fill-opacity="0" transform="translate(0.207764 0.597412)"/>
<path d="M18.1921 21.5914H31.9704C32.4672 21.5914 32.8646 21.3015 32.8646 20.9472C32.8646 20.5929 32.4672 20.303 31.9704 20.303H18.1921C17.6953 20.303 17.2979 20.5929 17.2979 20.9472C17.2979 21.3338 17.6953 21.5914 18.1921 21.5914Z" fill="white"/>
<path d="M26.4725 1.10475C25.7108 0.428301 24.4522 0.428301 23.6904 1.10475L0.538971 14.6659C0.340247 14.7947 0.207764 14.988 0.207764 15.2135V39.2756C0.207764 40.3708 1.13515 41.2727 2.26125 41.2727H47.8686C48.9947 41.2727 49.9221 40.3708 49.9221 39.2756V15.2135C49.9221 14.988 49.7896 14.7947 49.5908 14.6659L26.4725 1.10475ZM24.4191 2.16773C24.4522 2.13552 24.5184 2.10331 24.5515 2.0711C24.684 1.94225 24.8827 1.84562 25.0815 1.84562C25.2802 1.84562 25.4789 1.91004 25.6114 2.0711C25.6445 2.10331 25.6776 2.13552 25.7439 2.16773L48.266 15.4067L31.9375 24.8448C31.6394 25.038 31.54 25.4246 31.7056 25.7145C31.8381 25.9078 32.0368 26.0366 32.2687 26.0366C32.368 26.0366 32.5005 26.0044 32.5999 25.94L48.5972 16.663V39.2434L26.4725 24.9092C25.777 24.3616 24.3859 24.3616 23.7235 24.877L1.53259 39.2434V16.663L17.5299 25.94C17.6293 26.0044 17.7618 26.0366 17.8611 26.0366C18.093 26.0366 18.2917 25.94 18.4242 25.7145C18.6229 25.4246 18.5236 25.038 18.1923 24.8448L1.8638 15.3745L24.4191 2.16773ZM47.438 40.0165H2.72494L24.5184 25.9078C24.7503 25.7467 25.4458 25.7467 25.7108 25.94L47.438 40.0165Z" fill="white"/>
<path d="M8.71954 17.114H41.4098C41.7741 17.114 42.0722 16.8241 42.0722 16.4698C42.0722 16.1155 41.7741 15.8256 41.4098 15.8256H8.71954C8.35522 15.8256 8.05713 16.1155 8.05713 16.4698C8.05713 16.8241 8.35522 17.114 8.71954 17.114Z" fill="white"/>
</svg>
