<svg width="56" height="56" viewBox="0 0 56 56" fill="none" xmlns="http://www.w3.org/2000/svg">
<rect width="56" height="56" fill="black" fill-opacity="0"/>
<rect width="56" height="56" fill="black" fill-opacity="0"/>
<path d="M8.90909 34.115C3.98873 34.115 0 38.1496 0 43.1265C0 48.1034 3.98873 52.138 8.90909 52.138C13.8295 52.138 17.8182 48.1034 17.8182 43.1265C17.8182 38.1496 13.8295 34.115 8.90909 34.115ZM8.90909 50.2069C5.04955 50.2069 1.90909 47.0304 1.90909 43.1265C1.90909 39.2226 5.04955 36.046 8.90909 36.046C12.7686 36.046 15.9091 39.2226 15.9091 43.1265C15.9091 47.0304 12.7686 50.2069 8.90909 50.2069Z" fill="#602C8D"/>
<path d="M27.9999 37.9769C23.0795 37.9769 19.0908 42.0115 19.0908 46.9884C19.0908 51.9653 23.0795 55.9999 27.9999 55.9999C32.9203 55.9999 36.909 51.9653 36.909 46.9884C36.909 42.0115 32.9203 37.9769 27.9999 37.9769ZM27.9999 54.0689C24.1404 54.0689 20.9999 50.8923 20.9999 46.9884C20.9999 43.0845 24.1404 39.908 27.9999 39.908C31.8595 39.908 34.9999 43.0845 34.9999 46.9884C34.9999 50.8923 31.8595 54.0689 27.9999 54.0689Z" fill="#602C8D"/>
<path d="M28.0003 30.8965C36.4359 30.8965 43.273 23.9809 43.273 15.4483C43.273 6.91697 36.4359 0 28.0003 0C19.5646 0 12.7275 6.91697 12.7275 15.4483C12.7275 23.9809 19.5646 30.8965 28.0003 30.8965ZM28.0003 1.93103C35.3694 1.93103 41.3639 7.99513 41.3639 15.4483C41.3639 22.9014 35.3694 28.9655 28.0003 28.9655C20.6312 28.9655 14.6366 22.9014 14.6366 15.4483C14.6366 7.99513 20.6312 1.93103 28.0003 1.93103Z" fill="#602C8D"/>
<path d="M47.0907 34.115C42.1704 34.115 38.1816 38.1496 38.1816 43.1265C38.1816 48.1034 42.1704 52.138 47.0907 52.138C52.0111 52.138 55.9998 48.1034 55.9998 43.1265C55.9998 38.1496 52.0111 34.115 47.0907 34.115ZM47.0907 50.2069C43.2312 50.2069 40.0907 47.0304 40.0907 43.1265C40.0907 39.2226 43.2312 36.046 47.0907 36.046C50.9503 36.046 54.0907 39.2226 54.0907 43.1265C54.0907 47.0304 50.9503 50.2069 47.0907 50.2069Z" fill="#602C8D"/>
<path d="M20.3976 23.1724H35.6035C35.8548 23.1724 36.1005 23.0695 36.2787 22.8899C36.4568 22.7103 36.558 22.4612 36.558 22.2069C36.5574 18.6416 34.4256 15.7618 31.3831 14.5266C32.4815 13.5662 33.1789 12.1501 33.1789 10.566C33.1783 7.67332 30.8607 5.32904 28.0002 5.3284C25.1397 5.32904 22.8221 7.67332 22.8215 10.566C22.8215 12.1501 23.5196 13.5662 24.6173 14.5266C21.5748 15.7618 19.443 18.6416 19.4424 22.2069C19.4424 22.4612 19.5442 22.7096 19.7217 22.8899C19.8993 23.0701 20.1456 23.1724 20.3976 23.1724ZM25.6883 12.9045C25.0952 12.3027 24.7312 11.4826 24.7306 10.566C24.7312 9.65006 25.0952 8.83001 25.6883 8.22817C26.2827 7.62762 27.094 7.26008 28.0002 7.25943C28.9057 7.26008 29.7171 7.62762 30.3121 8.22817C30.9052 8.83001 31.2692 9.65006 31.2698 10.566C31.2692 11.4826 30.9052 12.3027 30.3121 12.9045C29.7171 13.505 28.9057 13.8726 28.0002 13.8732C27.094 13.8726 26.2827 13.5044 25.6883 12.9045ZM23.2994 17.7733C24.5053 16.5548 26.1611 15.8043 28.0002 15.8036C29.8387 15.8043 31.4951 16.5548 32.701 17.7733C33.6861 18.771 34.3537 19.862 34.5681 21.2414H21.4329C21.6474 19.862 22.3143 18.771 23.2994 17.7733Z" fill="#602C8D"/>
<path d="M28.0385 37.0174C28.5657 37.0174 28.9931 36.5851 28.9931 36.0519C28.9931 35.5186 28.5657 35.0864 28.0385 35.0864C27.5113 35.0864 27.084 35.5186 27.084 36.0519C27.084 36.5851 27.5113 37.0174 28.0385 37.0174Z" fill="#602C8D"/>
<path d="M28.0385 33.7989C28.5657 33.7989 28.9931 33.3666 28.9931 32.8334C28.9931 32.3001 28.5657 31.8679 28.0385 31.8679C27.5113 31.8679 27.084 32.3001 27.084 32.8334C27.084 33.3666 27.5113 33.7989 28.0385 33.7989Z" fill="#602C8D"/>
<path d="M41.3481 35.4189C41.8753 35.4189 42.3026 34.9867 42.3026 34.4534C42.3026 33.9202 41.8753 33.4879 41.3481 33.4879C40.8209 33.4879 40.3936 33.9202 40.3936 34.4534C40.3936 34.9867 40.8209 35.4189 41.3481 35.4189Z" fill="#602C8D"/>
<path d="M39.3022 32.9538C39.8294 32.9538 40.2567 32.5215 40.2567 31.9883C40.2567 31.455 39.8294 31.0228 39.3022 31.0228C38.775 31.0228 38.3477 31.455 38.3477 31.9883C38.3477 32.5215 38.775 32.9538 39.3022 32.9538Z" fill="#602C8D"/>
<path d="M37.2573 30.4884C37.7845 30.4884 38.2118 30.0561 38.2118 29.5229C38.2118 28.9896 37.7845 28.5573 37.2573 28.5573C36.7301 28.5573 36.3027 28.9896 36.3027 29.5229C36.3027 30.0561 36.7301 30.4884 37.2573 30.4884Z" fill="#602C8D"/>
<path d="M14.7202 35.4939C15.2474 35.4939 15.6747 35.0616 15.6747 34.5284C15.6747 33.9951 15.2474 33.5628 14.7202 33.5628C14.193 33.5628 13.7656 33.9951 13.7656 34.5284C13.7656 35.0616 14.193 35.4939 14.7202 35.4939Z" fill="#602C8D"/>
<path d="M16.7661 33.0284C17.2932 33.0284 17.7206 32.5962 17.7206 32.0629C17.7206 31.5297 17.2932 31.0974 16.7661 31.0974C16.2389 31.0974 15.8115 31.5297 15.8115 32.0629C15.8115 32.5962 16.2389 33.0284 16.7661 33.0284Z" fill="#602C8D"/>
<path d="M18.811 30.5624C19.3382 30.5624 19.7655 30.1301 19.7655 29.5968C19.7655 29.0636 19.3382 28.6313 18.811 28.6313C18.2838 28.6313 17.8564 29.0636 17.8564 29.5968C17.8564 30.1301 18.2838 30.5624 18.811 30.5624Z" fill="#602C8D"/>
<path d="M49.9046 43.0227C49.799 42.9545 49.6813 42.9004 49.5706 42.8392C49.9276 42.3333 50.142 41.7186 50.1426 41.0492C50.142 39.3408 48.7738 37.9576 47.0855 37.9569C45.3966 37.9576 44.0291 39.3408 44.0285 41.0492C44.0291 41.718 44.2442 42.3333 44.6005 42.8392C44.4885 42.9004 44.3721 42.9545 44.2665 43.0227C43.471 43.5389 42.8435 44.2862 42.5413 45.1919C42.3733 45.6972 42.6418 46.2449 43.1414 46.4149C43.6409 46.5848 44.1825 46.3132 44.3505 45.8079C44.4943 45.3734 44.8182 44.9589 45.2974 44.6473C45.774 44.3377 46.3957 44.1401 47.0849 44.1408C47.7741 44.1401 48.3958 44.3377 48.8725 44.6473C49.3516 44.9582 49.6762 45.3734 49.8194 45.8079C49.988 46.3132 50.5289 46.5848 51.0285 46.4149C51.528 46.2443 51.7965 45.6972 51.6285 45.1919C51.3269 44.2862 50.7001 43.5389 49.9046 43.0227ZM47.0855 42.2097C46.4517 42.2084 45.9388 41.6883 45.9376 41.0485C45.9388 40.4068 46.4517 39.8886 47.0855 39.8873C47.7187 39.8886 48.2323 40.4074 48.2335 41.0485C48.2323 41.689 47.7181 42.2084 47.0855 42.2097Z" fill="#602C8D"/>
<path d="M30.8333 46.8849C30.7271 46.8166 30.61 46.7626 30.4986 46.7014C30.8563 46.1955 31.0707 45.5808 31.0713 44.9114C31.0707 43.203 29.7025 41.8198 28.0143 41.8191C26.3253 41.8198 24.9572 43.203 24.9572 44.9114C24.9572 45.5801 25.1729 46.1955 25.5293 46.7014C25.4173 46.7626 25.3008 46.8166 25.1952 46.8849C24.3997 47.4011 23.7723 48.1484 23.47 49.0541C23.302 49.5594 23.5705 50.1071 24.0701 50.2771C24.5696 50.447 25.1112 50.1754 25.2792 49.6701C25.423 49.2356 25.7469 48.8211 26.2261 48.5095C26.7027 48.1999 27.3244 48.0023 28.0136 48.0029C28.7028 48.0023 29.3245 48.1999 29.8012 48.5095C30.2803 48.8204 30.6049 49.2356 30.7481 49.6701C30.9167 50.1754 31.4576 50.447 31.9572 50.2771C32.4567 50.1065 32.7253 49.5594 32.5573 49.0541C32.2563 48.1484 31.6288 47.4011 30.8333 46.8849ZM28.0143 46.0719C27.3804 46.0706 26.8675 45.5505 26.8663 44.9107C26.8675 44.269 27.3804 43.7508 28.0143 43.7495C28.6474 43.7508 29.161 44.2696 29.1623 44.9107C29.161 45.5512 28.6474 46.0706 28.0143 46.0719Z" fill="#602C8D"/>
<path d="M11.7425 43.0227C11.6363 42.9545 11.5192 42.9004 11.4078 42.8392C11.7654 42.3333 11.9799 41.7186 11.9805 41.0492C11.9799 39.3408 10.6117 37.9576 8.92344 37.9569C7.23453 37.9576 5.86635 39.3408 5.86635 41.0492C5.86635 41.718 6.08207 42.3333 6.43844 42.8392C6.32644 42.9004 6.20998 42.9545 6.10435 43.0227C5.30889 43.5389 4.68144 44.2862 4.37917 45.1919C4.21117 45.6972 4.47971 46.2449 4.97926 46.4149C5.4788 46.5848 6.02035 46.3132 6.18835 45.8079C6.33217 45.3734 6.65607 44.9589 7.13526 44.6473C7.61189 44.3377 8.23362 44.1401 8.9228 44.1408C9.61198 44.1401 10.2337 44.3377 10.7103 44.6473C11.1895 44.9582 11.5141 45.3734 11.6573 45.8079C11.8259 46.3132 12.3668 46.5848 12.8663 46.4149C13.3659 46.2443 13.6344 45.6972 13.4664 45.1919C13.1654 44.2862 12.538 43.5389 11.7425 43.0227ZM8.92344 42.2097C8.28962 42.2084 7.77671 41.6883 7.77544 41.0485C7.77671 40.4068 8.28962 39.8886 8.92344 39.8873C9.55662 39.8886 10.0702 40.4074 10.0714 41.0485C10.0702 41.689 9.55662 42.2084 8.92344 42.2097Z" fill="#602C8D"/>
</svg>
