<svg width="107" height="107" viewBox="0 0 107 107" fill="none" xmlns="http://www.w3.org/2000/svg">
<rect width="107" height="107" fill="black" fill-opacity="0"/>
<path d="M1.78333 14.2667C4.44942 14.2667 8.91667 19.8503 8.91667 23.1833C8.91667 24.1677 9.7156 24.9667 10.7 24.9667C11.6844 24.9667 12.4833 24.1677 12.4833 23.1833C12.4833 19.8503 16.9506 14.2667 19.6167 14.2667C20.6011 14.2667 21.4 13.4677 21.4 12.4833C21.4 11.4989 20.6011 10.7 19.6167 10.7C16.9506 10.7 12.4833 5.11638 12.4833 1.78333C12.4833 0.798933 11.6844 0 10.7 0C9.7156 0 8.91667 0.798933 8.91667 1.78333C8.91667 5.11638 4.44942 10.7 1.78333 10.7C0.798933 10.7 0 11.4989 0 12.4833C0 13.4677 0.798933 14.2667 1.78333 14.2667ZM10.7 7.40618C11.8253 9.36072 13.3839 11.2011 15.0924 12.4833C13.3839 13.7655 11.8253 15.6059 10.7 17.5605C9.57472 15.6059 8.01608 13.7655 6.30765 12.4833C8.01608 11.2011 9.57472 9.36072 10.7 7.40618Z" fill="#642C8D"/>
<path d="M16.05 107C24.0269 107 32.1 104.55 32.1 99.8666V90.95V82.0333V73.1166V64.2C32.1 59.517 24.0269 57.0667 16.05 57.0667C8.07315 57.0667 0 59.517 0 64.2V73.1166V82.0333V90.95V99.8666C0 104.55 8.07315 107 16.05 107ZM16.05 103.433C7.94118 103.433 3.56667 100.903 3.56667 99.8666V95.5866C6.66253 97.2327 11.367 98.0833 16.05 98.0833C20.733 98.0833 25.4375 97.2327 28.5333 95.5866V99.8666C28.5333 100.903 24.1588 103.433 16.05 103.433ZM3.56667 68.8491C9.76018 72.1322 22.3398 72.1322 28.5333 68.8491V73.1166C28.5333 74.1528 24.1588 76.6833 16.05 76.6833C7.94118 76.6833 3.56667 74.1528 3.56667 73.1166V68.8491ZM3.56667 86.6825C9.76018 89.9656 22.3398 89.9656 28.5333 86.6825V90.95C28.5333 91.9861 24.1588 94.5166 16.05 94.5166C7.94118 94.5166 3.56667 91.9861 3.56667 90.95V86.6825ZM16.05 80.25C20.733 80.25 25.4375 79.3993 28.5333 77.7533V82.0333C28.5333 83.0694 24.1588 85.6 16.05 85.6C7.94118 85.6 3.56667 83.0694 3.56667 82.0333V77.7533C6.66253 79.3993 11.367 80.25 16.05 80.25ZM16.05 60.6333C24.1588 60.6333 28.5333 63.1639 28.5333 64.2C28.5333 65.2361 24.1588 67.7666 16.05 67.7666C7.94118 67.7666 3.56667 65.2361 3.56667 64.2C3.56667 63.1639 7.94118 60.6333 16.05 60.6333Z" fill="#642C8D"/>
<path d="M37.4502 28.5333V37.45V46.3667V55.2833V64.2V73.1167V82.0333V90.95V99.8667C37.4502 104.55 45.5233 107 53.5002 107C61.477 107 69.5502 104.55 69.5502 99.8667V90.95V82.0333V73.1167V64.2V55.2833V46.3667V37.45V28.5333C69.5502 23.8503 61.477 21.4 53.5002 21.4C45.5233 21.4 37.4502 23.8503 37.4502 28.5333ZM41.0169 51.0158C47.2104 54.2989 59.79 54.2989 65.9835 51.0158V55.2833C65.9835 56.3194 61.609 58.85 53.5002 58.85C45.3914 58.85 41.0169 56.3194 41.0169 55.2833V51.0158ZM41.0169 68.8491C47.2104 72.1323 59.79 72.1323 65.9835 68.8491V73.1167C65.9835 74.1528 61.609 76.6833 53.5002 76.6833C45.3914 76.6833 41.0169 74.1528 41.0169 73.1167V68.8491ZM41.0169 86.6825C47.2104 89.9656 59.79 89.9656 65.9835 86.6825V90.95C65.9835 91.9861 61.609 94.5167 53.5002 94.5167C45.3914 94.5167 41.0169 91.9861 41.0169 90.95V86.6825ZM65.9835 82.0333C65.9835 83.0694 61.609 85.6 53.5002 85.6C45.3914 85.6 41.0169 83.0694 41.0169 82.0333V77.7533C44.1127 79.3993 48.8172 80.25 53.5002 80.25C58.1832 80.25 62.8877 79.3993 65.9835 77.7533V82.0333ZM65.9835 64.2C65.9835 65.2361 61.609 67.7667 53.5002 67.7667C45.3914 67.7667 41.0169 65.2361 41.0169 64.2V59.92C44.1127 61.566 48.8172 62.4167 53.5002 62.4167C58.1832 62.4167 62.8877 61.566 65.9835 59.92V64.2ZM65.9835 46.3667C65.9835 47.4028 61.609 49.9333 53.5002 49.9333C45.3914 49.9333 41.0169 47.4028 41.0169 46.3667V42.0867C44.1127 43.7327 48.8172 44.5833 53.5002 44.5833C58.1832 44.5833 62.8877 43.7327 65.9835 42.0867V46.3667ZM65.9835 37.45C65.9835 38.4861 61.609 41.0167 53.5002 41.0167C45.3914 41.0167 41.0169 38.4861 41.0169 37.45V33.1825C47.2104 36.4656 59.79 36.4656 65.9835 33.1825V37.45ZM53.5002 103.433C45.3914 103.433 41.0169 100.903 41.0169 99.8667V95.5867C44.1127 97.2327 48.8172 98.0833 53.5002 98.0833C58.1832 98.0833 62.8877 97.2327 65.9835 95.5867V99.8667C65.9835 100.903 61.609 103.433 53.5002 103.433ZM65.9835 28.5333C65.9835 29.5694 61.609 32.1 53.5002 32.1C45.3914 32.1 41.0169 29.5694 41.0169 28.5333C41.0169 27.4972 45.3914 24.9667 53.5002 24.9667C61.609 24.9667 65.9835 27.4972 65.9835 28.5333Z" fill="#642C8D"/>
<path d="M74.8994 10.7V19.6167V28.5333V37.45V46.3667V55.2833V64.2V73.1167V82.0333V90.95V99.8667C74.8994 104.55 82.9726 107 90.9494 107C98.9263 107 106.999 104.55 106.999 99.8667V90.95V82.0333V73.1167V64.2V55.2833V46.3667V37.45V28.5333V19.6167V10.7C106.999 6.01698 98.9263 3.56668 90.9494 3.56668C82.9726 3.56668 74.8994 6.01698 74.8994 10.7ZM78.4661 33.1825C84.6596 36.4656 97.2392 36.4656 103.433 33.1825V37.45C103.433 38.4861 99.0582 41.0167 90.9494 41.0167C82.8406 41.0167 78.4661 38.4861 78.4661 37.45V33.1825ZM78.4661 51.0158C84.6596 54.2989 97.2392 54.2989 103.433 51.0158V55.2833C103.433 56.3195 99.0582 58.85 90.9494 58.85C82.8406 58.85 78.4661 56.3195 78.4661 55.2833V51.0158ZM78.4661 68.8492C84.6596 72.1323 97.2392 72.1323 103.433 68.8492V73.1167C103.433 74.1528 99.0582 76.6833 90.9494 76.6833C82.8406 76.6833 78.4661 74.1528 78.4661 73.1167V68.8492ZM78.4661 86.6825C84.6596 89.9656 97.2392 89.9656 103.433 86.6825V90.95C103.433 91.9861 99.0582 94.5167 90.9494 94.5167C82.8406 94.5167 78.4661 91.9861 78.4661 90.95V86.6825ZM103.433 82.0333C103.433 83.0695 99.0582 85.6 90.9494 85.6C82.8406 85.6 78.4661 83.0695 78.4661 82.0333V77.7533C81.5619 79.3994 86.2664 80.25 90.9494 80.25C95.6324 80.25 100.337 79.3994 103.433 77.7533V82.0333ZM103.433 64.2C103.433 65.2361 99.0582 67.7667 90.9494 67.7667C82.8406 67.7667 78.4661 65.2361 78.4661 64.2V59.92C81.5619 61.566 86.2664 62.4167 90.9494 62.4167C95.6324 62.4167 100.337 61.566 103.433 59.92V64.2ZM103.433 46.3667C103.433 47.4028 99.0582 49.9333 90.9494 49.9333C82.8406 49.9333 78.4661 47.4028 78.4661 46.3667V42.0867C81.5619 43.7327 86.2664 44.5833 90.9494 44.5833C95.6324 44.5833 100.337 43.7327 103.433 42.0867V46.3667ZM103.433 28.5333C103.433 29.5695 99.0582 32.1 90.9494 32.1C82.8406 32.1 78.4661 29.5695 78.4661 28.5333V24.2533C81.5619 25.8994 86.2664 26.75 90.9494 26.75C95.6324 26.75 100.337 25.8994 103.433 24.2533V28.5333ZM103.433 19.6167C103.433 20.6528 99.0582 23.1833 90.9494 23.1833C82.8406 23.1833 78.4661 20.6528 78.4661 19.6167V15.3492C84.6596 18.6323 97.2392 18.6323 103.433 15.3492V19.6167ZM90.9494 103.433C82.8406 103.433 78.4661 100.903 78.4661 99.8667V95.5867C81.5619 97.2327 86.2664 98.0833 90.9494 98.0833C95.6324 98.0833 100.337 97.2327 103.433 95.5867V99.8667C103.433 100.903 99.0582 103.433 90.9494 103.433ZM103.433 10.7C103.433 11.7361 99.0582 14.2667 90.9494 14.2667C82.8406 14.2667 78.4661 11.7361 78.4661 10.7C78.4661 9.6639 82.8406 7.13335 90.9494 7.13335C99.0582 7.13335 103.433 9.6639 103.433 10.7Z" fill="#642C8D"/>
</svg>
