<svg width="53" height="57" viewBox="0 0 53 57" fill="none" xmlns="http://www.w3.org/2000/svg">
<rect width="52.6491" height="56.6379" fill="black" fill-opacity="0"/>
<path d="M8.08067 13.0482L1.45166 6.45608L2.85108e-05 7.89656L6.62904 14.4886L8.08067 13.0482Z" fill="white"/>
<path d="M27.3506 9.31767V0H25.2988V9.31767H27.3506Z" fill="white"/>
<path d="M44.5683 13.048L51.1973 6.45592L52.6489 7.8964L46.0199 14.4885L44.5683 13.048Z" fill="white"/>
<path fill-rule="evenodd" clip-rule="evenodd" d="M14.3468 18.6968L7.61768 25.3819C13.9102 35.8008 20.2034 46.2193 26.4964 56.6379L45.3751 25.3819L38.646 18.6968C30.5462 18.6968 22.4465 18.6968 14.3468 18.6968ZM15.1964 20.7351H19.6081V24.5204H11.3865L15.1964 20.7351ZM21.6599 20.7351H31.3329V24.5204H21.6599V20.7351ZM33.3847 20.7351H37.7964L41.6069 24.5204H33.3847V20.7351ZM10.7212 26.5586H19.793L24.3289 49.0872L10.7212 26.5586ZM21.8855 26.5586H31.1073L26.4964 49.4614L21.8855 26.5586ZM33.1998 26.5586H42.2722L28.6639 49.0872L33.1998 26.5586Z" fill="white"/>
</svg>
