<svg width="56" height="51" viewBox="0 0 56 51" fill="none" xmlns="http://www.w3.org/2000/svg">
<rect width="54.2159" height="49.2466" fill="black" fill-opacity="0" transform="translate(1 1)"/>
<rect width="54.2159" height="49.2466" fill="black" fill-opacity="0" transform="translate(1 1)"/>
<mask id="path-1-outside-1" maskUnits="userSpaceOnUse" x="0" y="0" width="56" height="51" fill="black">
<rect fill="white" width="56" height="51"/>
<path d="M2.87364 1C1.85157 1 1 1.8533 1 2.8773V37.7871C1 38.8111 1.85157 39.6644 2.87364 39.6644H33.1708L35.762 47.2938C35.807 47.4219 35.8916 47.5323 36.0036 47.609C36.1155 47.6857 36.2489 47.7247 36.3844 47.7202C36.5199 47.7158 36.6505 47.6683 36.7572 47.5845C36.8639 47.5007 36.9412 47.385 36.9778 47.2542L38.6123 41.4625L46.2465 50.0301C46.3578 50.1567 46.5146 50.234 46.6826 50.2452C46.8506 50.2565 47.0163 50.2008 47.1434 50.0901L50.811 46.7948C50.9373 46.6832 51.0145 46.5262 51.0257 46.3578C51.0369 46.1895 50.9812 46.0235 50.8707 45.8961L45.3096 39.6651H53.3622C54.3843 39.6651 55.2159 38.8117 55.2159 37.7878V2.87793C55.2159 1.85393 54.3843 1.00062 53.3622 1.00062L2.87364 1ZM2.87364 2.27816H53.3621C53.6918 2.27816 53.9401 2.53161 53.9401 2.8773V37.7871C53.9401 38.1328 53.6918 38.3863 53.3621 38.3863H44.1734L43.2366 37.3278L49.1764 36.3492C49.3133 36.3286 49.4399 36.2639 49.5369 36.1648C49.6339 36.0658 49.696 35.9378 49.7141 35.8003C49.7321 35.6627 49.7049 35.523 49.6367 35.4022C49.5684 35.2815 49.4629 35.1863 49.3359 35.131L29.6229 25.7844C29.5236 25.7372 29.4137 25.7165 29.304 25.7243C29.2073 25.7315 29.1134 25.7608 29.0297 25.8098C28.9459 25.8588 28.8744 25.9263 28.8206 26.0072C28.7667 26.0881 28.732 26.1802 28.7191 26.2765C28.7062 26.3729 28.7154 26.4709 28.7459 26.5631L32.7523 38.3861H2.87357C2.54395 38.3861 2.2756 38.1327 2.2756 37.787V2.87715C2.2756 2.53145 2.54402 2.27816 2.87364 2.27816ZM26.4535 9.28813C26.3088 9.31089 26.1763 9.38287 26.0783 9.49198C25.9803 9.60108 25.9228 9.74067 25.9154 9.88727L25.4968 17.0967C25.4907 17.1811 25.5014 17.2659 25.5282 17.3462C25.5549 17.4264 25.5974 17.5006 25.6529 17.5643C25.7085 17.628 25.7761 17.6801 25.8519 17.7175C25.9277 17.7548 26.0101 17.7768 26.0944 17.7821C26.1787 17.7874 26.2632 17.7758 26.343 17.7482C26.4228 17.7206 26.4964 17.6773 26.5594 17.621C26.6225 17.5647 26.6738 17.4965 26.7104 17.4202C26.7469 17.3439 26.768 17.2611 26.7725 17.1766L27.191 9.96715C27.1983 9.87085 27.1836 9.77414 27.1482 9.68432C27.1128 9.59449 27.0575 9.51387 26.9866 9.44852C26.9156 9.38317 26.8308 9.33479 26.7385 9.30701C26.6461 9.27923 26.5487 9.27278 26.4535 9.28813ZM17.4244 12.4436C17.3107 12.461 17.2038 12.5088 17.1151 12.5821C17.0263 12.6553 16.959 12.7513 16.9202 12.8597C16.8814 12.9682 16.8725 13.0851 16.8946 13.1982C16.9167 13.3112 16.9689 13.4162 17.0457 13.502L21.8493 18.8943C21.9027 18.9656 21.9704 19.0249 22.0481 19.0685C22.1258 19.112 22.2117 19.1387 22.3003 19.147C22.3889 19.1553 22.4782 19.1449 22.5626 19.1165C22.6469 19.0881 22.7244 19.0424 22.7901 18.9822C22.8557 18.922 22.9081 18.8487 22.9438 18.767C22.9795 18.6854 22.9978 18.5971 22.9974 18.508C22.997 18.4188 22.978 18.3307 22.9417 18.2493C22.9053 18.1679 22.8523 18.0951 22.7862 18.0355L18.0024 12.6632C17.9325 12.5805 17.8428 12.517 17.7417 12.4785C17.6406 12.4401 17.5314 12.4281 17.4244 12.4436ZM35.1045 13.4422C34.9617 13.4576 34.8282 13.521 34.7258 13.6219L29.3441 18.415C29.2812 18.4714 29.2301 18.5396 29.1936 18.6158C29.1571 18.692 29.1359 18.7746 29.1313 18.859C29.1267 18.9434 29.1387 19.0279 29.1666 19.1076C29.1946 19.1873 29.238 19.2608 29.2942 19.3237C29.3505 19.3867 29.4186 19.4379 29.4947 19.4744C29.5707 19.511 29.6532 19.5322 29.7374 19.5369C29.8216 19.5415 29.9059 19.5295 29.9855 19.5015C30.0651 19.4735 30.1384 19.43 30.2012 19.3736L35.5629 14.5606C35.6628 14.4727 35.7328 14.3558 35.7632 14.2262C35.7935 14.0965 35.7827 13.9606 35.7322 13.8374C35.6817 13.7142 35.5941 13.6099 35.4815 13.539C35.369 13.4682 35.2372 13.4343 35.1045 13.4422ZM13.1592 21.0715C12.99 21.0953 12.8372 21.1855 12.7344 21.3222C12.6316 21.4589 12.5872 21.631 12.611 21.8005C12.6348 21.97 12.7248 22.123 12.8613 22.226C12.9977 22.329 13.1694 22.3735 13.3386 22.3497L20.5142 22.7491C20.5984 22.7552 20.683 22.7445 20.7631 22.7177C20.8432 22.6908 20.9172 22.6483 20.9808 22.5926C21.0444 22.537 21.0964 22.4692 21.1337 22.3933C21.171 22.3174 21.1929 22.2348 21.1982 22.1504C21.2035 22.0659 21.192 21.9812 21.1644 21.9012C21.1368 21.8212 21.0937 21.7476 21.0375 21.6844C20.9813 21.6212 20.9132 21.5698 20.837 21.5331C20.7609 21.4965 20.6783 21.4754 20.5939 21.4709L13.4183 21.0715C13.3523 21.061 13.285 21.061 13.219 21.0715C13.199 21.0706 13.1791 21.0706 13.1592 21.0715ZM30.9586 22.0901C30.8105 22.1272 30.6806 22.2163 30.5925 22.3412C30.5043 22.4661 30.4638 22.6184 30.4783 22.7707C30.4928 22.923 30.5613 23.065 30.6713 23.171C30.7814 23.2769 30.9257 23.3398 31.0782 23.3483L38.2538 23.7677C38.338 23.7738 38.4226 23.7631 38.5027 23.7363C38.5828 23.7094 38.6568 23.6669 38.7204 23.6113C38.784 23.5556 38.836 23.4878 38.8733 23.4119C38.9106 23.336 38.9326 23.2534 38.9378 23.169C38.9431 23.0845 38.9316 22.9998 38.904 22.9198C38.8764 22.8398 38.8333 22.7661 38.7771 22.703C38.7209 22.6398 38.6528 22.5884 38.5766 22.5518C38.5005 22.5151 38.4179 22.494 38.3335 22.4895L31.1381 22.0901C31.0786 22.0816 31.0181 22.0816 30.9586 22.0901ZM21.7897 25.3055C21.6704 25.3273 21.5598 25.3827 21.4708 25.4652L16.0891 30.2583C16.0262 30.3147 15.9751 30.383 15.9386 30.4592C15.9021 30.5353 15.8809 30.618 15.8763 30.7024C15.8717 30.7868 15.8837 30.8712 15.9117 30.9509C15.9396 31.0307 15.983 31.1041 16.0392 31.1671C16.0955 31.23 16.1636 31.2812 16.2397 31.3178C16.3157 31.3544 16.3982 31.3756 16.4824 31.3802C16.5666 31.3848 16.6509 31.3728 16.7305 31.3448C16.8101 31.3168 16.8834 31.2734 16.9462 31.217L22.3079 26.4239C22.4148 26.3334 22.489 26.2103 22.5192 26.0735C22.5493 25.9366 22.5337 25.7936 22.4748 25.6665C22.4159 25.5394 22.317 25.4352 22.1932 25.3699C22.0694 25.3047 21.9276 25.2821 21.7897 25.3055ZM25.4373 27.0629C25.2926 27.0857 25.1601 27.1577 25.0621 27.2668C24.9641 27.3759 24.9066 27.5155 24.8992 27.6621L24.4806 34.8716C24.4767 34.9555 24.4893 35.0394 24.5177 35.1184C24.5461 35.1975 24.5898 35.2701 24.6462 35.3323C24.7027 35.3944 24.7708 35.4448 24.8466 35.4805C24.9225 35.5163 25.0047 35.5367 25.0885 35.5407C25.1722 35.5446 25.2559 35.532 25.3348 35.5035C25.4137 35.4751 25.4862 35.4313 25.5483 35.3747C25.6103 35.3182 25.6605 35.25 25.6962 35.1739C25.7319 35.0979 25.7523 35.0156 25.7563 34.9316L26.1748 27.742C26.1821 27.6457 26.1674 27.549 26.132 27.4592C26.0966 27.3693 26.0413 27.2887 25.9704 27.2234C25.8994 27.158 25.8146 27.1096 25.7223 27.0819C25.6299 27.0541 25.5325 27.0476 25.4373 27.0629ZM30.4204 27.5822L46.9442 35.4109L41.8814 36.2497C41.7713 36.2693 41.6684 36.3175 41.5827 36.3894C41.4971 36.4614 41.4319 36.5546 41.3935 36.6597C41.3552 36.7649 41.3451 36.8783 41.3642 36.9886C41.3834 37.0989 41.4311 37.2022 41.5026 37.2882L49.4953 46.2552L46.7646 48.7117L38.7917 39.7448C38.7167 39.6575 38.6196 39.5921 38.5105 39.5556C38.4015 39.5191 38.2846 39.5127 38.1723 39.5372C38.06 39.5618 37.9563 39.6164 37.8724 39.6951C37.7885 39.7738 37.7273 39.8737 37.6954 39.9844L36.3001 44.9373L30.4204 27.5822Z"/>
</mask>
<path d="M2.87364 1C1.85157 1 1 1.8533 1 2.8773V37.7871C1 38.8111 1.85157 39.6644 2.87364 39.6644H33.1708L35.762 47.2938C35.807 47.4219 35.8916 47.5323 36.0036 47.609C36.1155 47.6857 36.2489 47.7247 36.3844 47.7202C36.5199 47.7158 36.6505 47.6683 36.7572 47.5845C36.8639 47.5007 36.9412 47.385 36.9778 47.2542L38.6123 41.4625L46.2465 50.0301C46.3578 50.1567 46.5146 50.234 46.6826 50.2452C46.8506 50.2565 47.0163 50.2008 47.1434 50.0901L50.811 46.7948C50.9373 46.6832 51.0145 46.5262 51.0257 46.3578C51.0369 46.1895 50.9812 46.0235 50.8707 45.8961L45.3096 39.6651H53.3622C54.3843 39.6651 55.2159 38.8117 55.2159 37.7878V2.87793C55.2159 1.85393 54.3843 1.00062 53.3622 1.00062L2.87364 1ZM2.87364 2.27816H53.3621C53.6918 2.27816 53.9401 2.53161 53.9401 2.8773V37.7871C53.9401 38.1328 53.6918 38.3863 53.3621 38.3863H44.1734L43.2366 37.3278L49.1764 36.3492C49.3133 36.3286 49.4399 36.2639 49.5369 36.1648C49.6339 36.0658 49.696 35.9378 49.7141 35.8003C49.7321 35.6627 49.7049 35.523 49.6367 35.4022C49.5684 35.2815 49.4629 35.1863 49.3359 35.131L29.6229 25.7844C29.5236 25.7372 29.4137 25.7165 29.304 25.7243C29.2073 25.7315 29.1134 25.7608 29.0297 25.8098C28.9459 25.8588 28.8744 25.9263 28.8206 26.0072C28.7667 26.0881 28.732 26.1802 28.7191 26.2765C28.7062 26.3729 28.7154 26.4709 28.7459 26.5631L32.7523 38.3861H2.87357C2.54395 38.3861 2.2756 38.1327 2.2756 37.787V2.87715C2.2756 2.53145 2.54402 2.27816 2.87364 2.27816ZM26.4535 9.28813C26.3088 9.31089 26.1763 9.38287 26.0783 9.49198C25.9803 9.60108 25.9228 9.74067 25.9154 9.88727L25.4968 17.0967C25.4907 17.1811 25.5014 17.2659 25.5282 17.3462C25.5549 17.4264 25.5974 17.5006 25.6529 17.5643C25.7085 17.628 25.7761 17.6801 25.8519 17.7175C25.9277 17.7548 26.0101 17.7768 26.0944 17.7821C26.1787 17.7874 26.2632 17.7758 26.343 17.7482C26.4228 17.7206 26.4964 17.6773 26.5594 17.621C26.6225 17.5647 26.6738 17.4965 26.7104 17.4202C26.7469 17.3439 26.768 17.2611 26.7725 17.1766L27.191 9.96715C27.1983 9.87085 27.1836 9.77414 27.1482 9.68432C27.1128 9.59449 27.0575 9.51387 26.9866 9.44852C26.9156 9.38317 26.8308 9.33479 26.7385 9.30701C26.6461 9.27923 26.5487 9.27278 26.4535 9.28813ZM17.4244 12.4436C17.3107 12.461 17.2038 12.5088 17.1151 12.5821C17.0263 12.6553 16.959 12.7513 16.9202 12.8597C16.8814 12.9682 16.8725 13.0851 16.8946 13.1982C16.9167 13.3112 16.9689 13.4162 17.0457 13.502L21.8493 18.8943C21.9027 18.9656 21.9704 19.0249 22.0481 19.0685C22.1258 19.112 22.2117 19.1387 22.3003 19.147C22.3889 19.1553 22.4782 19.1449 22.5626 19.1165C22.6469 19.0881 22.7244 19.0424 22.7901 18.9822C22.8557 18.922 22.9081 18.8487 22.9438 18.767C22.9795 18.6854 22.9978 18.5971 22.9974 18.508C22.997 18.4188 22.978 18.3307 22.9417 18.2493C22.9053 18.1679 22.8523 18.0951 22.7862 18.0355L18.0024 12.6632C17.9325 12.5805 17.8428 12.517 17.7417 12.4785C17.6406 12.4401 17.5314 12.4281 17.4244 12.4436ZM35.1045 13.4422C34.9617 13.4576 34.8282 13.521 34.7258 13.6219L29.3441 18.415C29.2812 18.4714 29.2301 18.5396 29.1936 18.6158C29.1571 18.692 29.1359 18.7746 29.1313 18.859C29.1267 18.9434 29.1387 19.0279 29.1666 19.1076C29.1946 19.1873 29.238 19.2608 29.2942 19.3237C29.3505 19.3867 29.4186 19.4379 29.4947 19.4744C29.5707 19.511 29.6532 19.5322 29.7374 19.5369C29.8216 19.5415 29.9059 19.5295 29.9855 19.5015C30.0651 19.4735 30.1384 19.43 30.2012 19.3736L35.5629 14.5606C35.6628 14.4727 35.7328 14.3558 35.7632 14.2262C35.7935 14.0965 35.7827 13.9606 35.7322 13.8374C35.6817 13.7142 35.5941 13.6099 35.4815 13.539C35.369 13.4682 35.2372 13.4343 35.1045 13.4422ZM13.1592 21.0715C12.99 21.0953 12.8372 21.1855 12.7344 21.3222C12.6316 21.4589 12.5872 21.631 12.611 21.8005C12.6348 21.97 12.7248 22.123 12.8613 22.226C12.9977 22.329 13.1694 22.3735 13.3386 22.3497L20.5142 22.7491C20.5984 22.7552 20.683 22.7445 20.7631 22.7177C20.8432 22.6908 20.9172 22.6483 20.9808 22.5926C21.0444 22.537 21.0964 22.4692 21.1337 22.3933C21.171 22.3174 21.1929 22.2348 21.1982 22.1504C21.2035 22.0659 21.192 21.9812 21.1644 21.9012C21.1368 21.8212 21.0937 21.7476 21.0375 21.6844C20.9813 21.6212 20.9132 21.5698 20.837 21.5331C20.7609 21.4965 20.6783 21.4754 20.5939 21.4709L13.4183 21.0715C13.3523 21.061 13.285 21.061 13.219 21.0715C13.199 21.0706 13.1791 21.0706 13.1592 21.0715ZM30.9586 22.0901C30.8105 22.1272 30.6806 22.2163 30.5925 22.3412C30.5043 22.4661 30.4638 22.6184 30.4783 22.7707C30.4928 22.923 30.5613 23.065 30.6713 23.171C30.7814 23.2769 30.9257 23.3398 31.0782 23.3483L38.2538 23.7677C38.338 23.7738 38.4226 23.7631 38.5027 23.7363C38.5828 23.7094 38.6568 23.6669 38.7204 23.6113C38.784 23.5556 38.836 23.4878 38.8733 23.4119C38.9106 23.336 38.9326 23.2534 38.9378 23.169C38.9431 23.0845 38.9316 22.9998 38.904 22.9198C38.8764 22.8398 38.8333 22.7661 38.7771 22.703C38.7209 22.6398 38.6528 22.5884 38.5766 22.5518C38.5005 22.5151 38.4179 22.494 38.3335 22.4895L31.1381 22.0901C31.0786 22.0816 31.0181 22.0816 30.9586 22.0901ZM21.7897 25.3055C21.6704 25.3273 21.5598 25.3827 21.4708 25.4652L16.0891 30.2583C16.0262 30.3147 15.9751 30.383 15.9386 30.4592C15.9021 30.5353 15.8809 30.618 15.8763 30.7024C15.8717 30.7868 15.8837 30.8712 15.9117 30.9509C15.9396 31.0307 15.983 31.1041 16.0392 31.1671C16.0955 31.23 16.1636 31.2812 16.2397 31.3178C16.3157 31.3544 16.3982 31.3756 16.4824 31.3802C16.5666 31.3848 16.6509 31.3728 16.7305 31.3448C16.8101 31.3168 16.8834 31.2734 16.9462 31.217L22.3079 26.4239C22.4148 26.3334 22.489 26.2103 22.5192 26.0735C22.5493 25.9366 22.5337 25.7936 22.4748 25.6665C22.4159 25.5394 22.317 25.4352 22.1932 25.3699C22.0694 25.3047 21.9276 25.2821 21.7897 25.3055ZM25.4373 27.0629C25.2926 27.0857 25.1601 27.1577 25.0621 27.2668C24.9641 27.3759 24.9066 27.5155 24.8992 27.6621L24.4806 34.8716C24.4767 34.9555 24.4893 35.0394 24.5177 35.1184C24.5461 35.1975 24.5898 35.2701 24.6462 35.3323C24.7027 35.3944 24.7708 35.4448 24.8466 35.4805C24.9225 35.5163 25.0047 35.5367 25.0885 35.5407C25.1722 35.5446 25.2559 35.532 25.3348 35.5035C25.4137 35.4751 25.4862 35.4313 25.5483 35.3747C25.6103 35.3182 25.6605 35.25 25.6962 35.1739C25.7319 35.0979 25.7523 35.0156 25.7563 34.9316L26.1748 27.742C26.1821 27.6457 26.1674 27.549 26.132 27.4592C26.0966 27.3693 26.0413 27.2887 25.9704 27.2234C25.8994 27.158 25.8146 27.1096 25.7223 27.0819C25.6299 27.0541 25.5325 27.0476 25.4373 27.0629ZM30.4204 27.5822L46.9442 35.4109L41.8814 36.2497C41.7713 36.2693 41.6684 36.3175 41.5827 36.3894C41.4971 36.4614 41.4319 36.5546 41.3935 36.6597C41.3552 36.7649 41.3451 36.8783 41.3642 36.9886C41.3834 37.0989 41.4311 37.2022 41.5026 37.2882L49.4953 46.2552L46.7646 48.7117L38.7917 39.7448C38.7167 39.6575 38.6196 39.5921 38.5105 39.5556C38.4015 39.5191 38.2846 39.5127 38.1723 39.5372C38.06 39.5618 37.9563 39.6164 37.8724 39.6951C37.7885 39.7738 37.7273 39.8737 37.6954 39.9844L36.3001 44.9373L30.4204 27.5822Z" fill="#602C8D"/>
<path d="M2.87364 1C1.85157 1 1 1.8533 1 2.8773V37.7871C1 38.8111 1.85157 39.6644 2.87364 39.6644H33.1708L35.762 47.2938C35.807 47.4219 35.8916 47.5323 36.0036 47.609C36.1155 47.6857 36.2489 47.7247 36.3844 47.7202C36.5199 47.7158 36.6505 47.6683 36.7572 47.5845C36.8639 47.5007 36.9412 47.385 36.9778 47.2542L38.6123 41.4625L46.2465 50.0301C46.3578 50.1567 46.5146 50.234 46.6826 50.2452C46.8506 50.2565 47.0163 50.2008 47.1434 50.0901L50.811 46.7948C50.9373 46.6832 51.0145 46.5262 51.0257 46.3578C51.0369 46.1895 50.9812 46.0235 50.8707 45.8961L45.3096 39.6651H53.3622C54.3843 39.6651 55.2159 38.8117 55.2159 37.7878V2.87793C55.2159 1.85393 54.3843 1.00062 53.3622 1.00062L2.87364 1ZM2.87364 2.27816H53.3621C53.6918 2.27816 53.9401 2.53161 53.9401 2.8773V37.7871C53.9401 38.1328 53.6918 38.3863 53.3621 38.3863H44.1734L43.2366 37.3278L49.1764 36.3492C49.3133 36.3286 49.4399 36.2639 49.5369 36.1648C49.6339 36.0658 49.696 35.9378 49.7141 35.8003C49.7321 35.6627 49.7049 35.523 49.6367 35.4022C49.5684 35.2815 49.4629 35.1863 49.3359 35.131L29.6229 25.7844C29.5236 25.7372 29.4137 25.7165 29.304 25.7243C29.2073 25.7315 29.1134 25.7608 29.0297 25.8098C28.9459 25.8588 28.8744 25.9263 28.8206 26.0072C28.7667 26.0881 28.732 26.1802 28.7191 26.2765C28.7062 26.3729 28.7154 26.4709 28.7459 26.5631L32.7523 38.3861H2.87357C2.54395 38.3861 2.2756 38.1327 2.2756 37.787V2.87715C2.2756 2.53145 2.54402 2.27816 2.87364 2.27816ZM26.4535 9.28813C26.3088 9.31089 26.1763 9.38287 26.0783 9.49198C25.9803 9.60108 25.9228 9.74067 25.9154 9.88727L25.4968 17.0967C25.4907 17.1811 25.5014 17.2659 25.5282 17.3462C25.5549 17.4264 25.5974 17.5006 25.6529 17.5643C25.7085 17.628 25.7761 17.6801 25.8519 17.7175C25.9277 17.7548 26.0101 17.7768 26.0944 17.7821C26.1787 17.7874 26.2632 17.7758 26.343 17.7482C26.4228 17.7206 26.4964 17.6773 26.5594 17.621C26.6225 17.5647 26.6738 17.4965 26.7104 17.4202C26.7469 17.3439 26.768 17.2611 26.7725 17.1766L27.191 9.96715C27.1983 9.87085 27.1836 9.77414 27.1482 9.68432C27.1128 9.59449 27.0575 9.51387 26.9866 9.44852C26.9156 9.38317 26.8308 9.33479 26.7385 9.30701C26.6461 9.27923 26.5487 9.27278 26.4535 9.28813ZM17.4244 12.4436C17.3107 12.461 17.2038 12.5088 17.1151 12.5821C17.0263 12.6553 16.959 12.7513 16.9202 12.8597C16.8814 12.9682 16.8725 13.0851 16.8946 13.1982C16.9167 13.3112 16.9689 13.4162 17.0457 13.502L21.8493 18.8943C21.9027 18.9656 21.9704 19.0249 22.0481 19.0685C22.1258 19.112 22.2117 19.1387 22.3003 19.147C22.3889 19.1553 22.4782 19.1449 22.5626 19.1165C22.6469 19.0881 22.7244 19.0424 22.7901 18.9822C22.8557 18.922 22.9081 18.8487 22.9438 18.767C22.9795 18.6854 22.9978 18.5971 22.9974 18.508C22.997 18.4188 22.978 18.3307 22.9417 18.2493C22.9053 18.1679 22.8523 18.0951 22.7862 18.0355L18.0024 12.6632C17.9325 12.5805 17.8428 12.517 17.7417 12.4785C17.6406 12.4401 17.5314 12.4281 17.4244 12.4436ZM35.1045 13.4422C34.9617 13.4576 34.8282 13.521 34.7258 13.6219L29.3441 18.415C29.2812 18.4714 29.2301 18.5396 29.1936 18.6158C29.1571 18.692 29.1359 18.7746 29.1313 18.859C29.1267 18.9434 29.1387 19.0279 29.1666 19.1076C29.1946 19.1873 29.238 19.2608 29.2942 19.3237C29.3505 19.3867 29.4186 19.4379 29.4947 19.4744C29.5707 19.511 29.6532 19.5322 29.7374 19.5369C29.8216 19.5415 29.9059 19.5295 29.9855 19.5015C30.0651 19.4735 30.1384 19.43 30.2012 19.3736L35.5629 14.5606C35.6628 14.4727 35.7328 14.3558 35.7632 14.2262C35.7935 14.0965 35.7827 13.9606 35.7322 13.8374C35.6817 13.7142 35.5941 13.6099 35.4815 13.539C35.369 13.4682 35.2372 13.4343 35.1045 13.4422ZM13.1592 21.0715C12.99 21.0953 12.8372 21.1855 12.7344 21.3222C12.6316 21.4589 12.5872 21.631 12.611 21.8005C12.6348 21.97 12.7248 22.123 12.8613 22.226C12.9977 22.329 13.1694 22.3735 13.3386 22.3497L20.5142 22.7491C20.5984 22.7552 20.683 22.7445 20.7631 22.7177C20.8432 22.6908 20.9172 22.6483 20.9808 22.5926C21.0444 22.537 21.0964 22.4692 21.1337 22.3933C21.171 22.3174 21.1929 22.2348 21.1982 22.1504C21.2035 22.0659 21.192 21.9812 21.1644 21.9012C21.1368 21.8212 21.0937 21.7476 21.0375 21.6844C20.9813 21.6212 20.9132 21.5698 20.837 21.5331C20.7609 21.4965 20.6783 21.4754 20.5939 21.4709L13.4183 21.0715C13.3523 21.061 13.285 21.061 13.219 21.0715C13.199 21.0706 13.1791 21.0706 13.1592 21.0715ZM30.9586 22.0901C30.8105 22.1272 30.6806 22.2163 30.5925 22.3412C30.5043 22.4661 30.4638 22.6184 30.4783 22.7707C30.4928 22.923 30.5613 23.065 30.6713 23.171C30.7814 23.2769 30.9257 23.3398 31.0782 23.3483L38.2538 23.7677C38.338 23.7738 38.4226 23.7631 38.5027 23.7363C38.5828 23.7094 38.6568 23.6669 38.7204 23.6113C38.784 23.5556 38.836 23.4878 38.8733 23.4119C38.9106 23.336 38.9326 23.2534 38.9378 23.169C38.9431 23.0845 38.9316 22.9998 38.904 22.9198C38.8764 22.8398 38.8333 22.7661 38.7771 22.703C38.7209 22.6398 38.6528 22.5884 38.5766 22.5518C38.5005 22.5151 38.4179 22.494 38.3335 22.4895L31.1381 22.0901C31.0786 22.0816 31.0181 22.0816 30.9586 22.0901ZM21.7897 25.3055C21.6704 25.3273 21.5598 25.3827 21.4708 25.4652L16.0891 30.2583C16.0262 30.3147 15.9751 30.383 15.9386 30.4592C15.9021 30.5353 15.8809 30.618 15.8763 30.7024C15.8717 30.7868 15.8837 30.8712 15.9117 30.9509C15.9396 31.0307 15.983 31.1041 16.0392 31.1671C16.0955 31.23 16.1636 31.2812 16.2397 31.3178C16.3157 31.3544 16.3982 31.3756 16.4824 31.3802C16.5666 31.3848 16.6509 31.3728 16.7305 31.3448C16.8101 31.3168 16.8834 31.2734 16.9462 31.217L22.3079 26.4239C22.4148 26.3334 22.489 26.2103 22.5192 26.0735C22.5493 25.9366 22.5337 25.7936 22.4748 25.6665C22.4159 25.5394 22.317 25.4352 22.1932 25.3699C22.0694 25.3047 21.9276 25.2821 21.7897 25.3055ZM25.4373 27.0629C25.2926 27.0857 25.1601 27.1577 25.0621 27.2668C24.9641 27.3759 24.9066 27.5155 24.8992 27.6621L24.4806 34.8716C24.4767 34.9555 24.4893 35.0394 24.5177 35.1184C24.5461 35.1975 24.5898 35.2701 24.6462 35.3323C24.7027 35.3944 24.7708 35.4448 24.8466 35.4805C24.9225 35.5163 25.0047 35.5367 25.0885 35.5407C25.1722 35.5446 25.2559 35.532 25.3348 35.5035C25.4137 35.4751 25.4862 35.4313 25.5483 35.3747C25.6103 35.3182 25.6605 35.25 25.6962 35.1739C25.7319 35.0979 25.7523 35.0156 25.7563 34.9316L26.1748 27.742C26.1821 27.6457 26.1674 27.549 26.132 27.4592C26.0966 27.3693 26.0413 27.2887 25.9704 27.2234C25.8994 27.158 25.8146 27.1096 25.7223 27.0819C25.6299 27.0541 25.5325 27.0476 25.4373 27.0629ZM30.4204 27.5822L46.9442 35.4109L41.8814 36.2497C41.7713 36.2693 41.6684 36.3175 41.5827 36.3894C41.4971 36.4614 41.4319 36.5546 41.3935 36.6597C41.3552 36.7649 41.3451 36.8783 41.3642 36.9886C41.3834 37.0989 41.4311 37.2022 41.5026 37.2882L49.4953 46.2552L46.7646 48.7117L38.7917 39.7448C38.7167 39.6575 38.6196 39.5921 38.5105 39.5556C38.4015 39.5191 38.2846 39.5127 38.1723 39.5372C38.06 39.5618 37.9563 39.6164 37.8724 39.6951C37.7885 39.7738 37.7273 39.8737 37.6954 39.9844L36.3001 44.9373L30.4204 27.5822Z" stroke="#602C8D" stroke-width="0.4" mask="url(#path-1-outside-1)"/>
</svg>
