<svg width="29" height="48" viewBox="0 0 29 48" fill="none" xmlns="http://www.w3.org/2000/svg">
<rect width="28.2468" height="47.4545" fill="black" fill-opacity="0" transform="translate(0.376709 0.337646)"/>
<rect width="28.2468" height="47.4545" fill="black" fill-opacity="0" transform="translate(0.376709 0.337646)"/>
<rect width="28.2468" height="47.4545" fill="black" fill-opacity="0" transform="translate(0.376709 0.337646)"/>
<path d="M26.2696 47.7922C27.5696 47.7922 28.6235 46.7299 28.6235 45.4195V2.71037C28.6235 1.39995 27.5696 0.337646 26.2696 0.337646H2.73061C1.43058 0.337646 0.376709 1.39995 0.376709 2.71037V45.4195C0.376709 46.7299 1.43058 47.7922 2.73061 47.7922H26.2696ZM1.94597 45.4195V40.674H19.9925C20.4258 40.674 20.7771 40.3199 20.7771 39.8831C20.7771 39.4463 20.4258 39.0922 19.9925 39.0922H1.94597V8.24674H4.29987C4.73321 8.24674 5.0845 7.89263 5.0845 7.45583C5.0845 7.01902 4.73321 6.66492 4.29987 6.66492H1.94597V2.71037C1.94597 2.27357 2.29726 1.91946 2.73061 1.91946H26.2696C26.7029 1.91946 27.0542 2.27357 27.0542 2.71037V6.66492H9.00766C8.57432 6.66492 8.22303 7.01902 8.22303 7.45583C8.22303 7.89263 8.57432 8.24674 9.00766 8.24674H27.0542V39.0922H24.7003C24.267 39.0922 23.9157 39.4463 23.9157 39.8831C23.9157 40.3199 24.267 40.674 24.7003 40.674H27.0542V45.4195C27.0542 45.8563 26.7029 46.2104 26.2696 46.2104H2.73061C2.29726 46.2104 1.94597 45.8563 1.94597 45.4195Z" fill="white"/>
<path d="M13.7158 44.6286H15.285C15.7184 44.6286 16.0697 44.2745 16.0697 43.8377C16.0697 43.4009 15.7184 43.0468 15.285 43.0468H13.7158C13.2824 43.0468 12.9312 43.4009 12.9312 43.8377C12.9312 44.2745 13.2824 44.6286 13.7158 44.6286Z" fill="white"/>
<path d="M24.1747 33.5511L25.2496 31.7502C25.7115 30.9777 25.4881 29.9755 24.7427 29.4764L20.4634 26.6046C19.7317 26.1186 18.7526 26.2792 18.2115 26.9739L16.9678 28.5858C16.9381 28.6274 16.8825 28.6405 16.8376 28.6167L16.6022 28.4846C15.2416 27.7355 14.0146 26.7627 12.9717 25.6065C11.8246 24.5552 10.8596 23.3184 10.1164 21.9469L9.98538 21.7049C9.96144 21.6599 9.97456 21.6039 10.016 21.5744L11.6158 20.32C12.3051 19.7748 12.4638 18.7876 11.9807 18.0509L9.13248 13.7436C8.63634 12.9936 7.6431 12.769 6.87666 13.2335L5.08927 14.3131C4.43186 14.7037 3.95013 15.3358 3.7452 16.0768C3.07198 18.5515 3.55061 22.7932 9.6574 28.948C14.4923 33.8208 18.1369 35.1377 20.6642 35.1377C21.2593 35.1402 21.852 35.0622 22.4265 34.906C23.161 34.699 23.7875 34.2135 24.1747 33.5511ZM10.7669 27.8281C4.89939 21.9145 4.79739 18.1885 5.25875 16.4936C5.35811 16.1461 5.58698 15.8508 5.89744 15.6695L7.68327 14.5899C7.69969 14.5794 7.71875 14.5739 7.73819 14.5741C7.7735 14.5741 7.80645 14.5919 7.82607 14.6215L9.37493 16.9642L10.6743 18.9241C10.7047 18.971 10.6949 19.0336 10.6515 19.0688L9.05166 20.3224C8.39569 20.8292 8.20911 21.7449 8.61384 22.4713L8.73781 22.7007C9.54997 24.2067 10.6057 25.5657 11.8614 26.7216C13.0082 27.9875 14.3564 29.0516 15.8505 29.8702L16.0773 29.9952C16.7981 30.4029 17.7067 30.2149 18.2099 29.5539L19.4535 27.942C19.4879 27.8981 19.5498 27.8879 19.5963 27.9183L23.8679 30.7885C23.9155 30.8201 23.9297 30.8841 23.9 30.9332L22.829 32.7333C22.6492 33.0463 22.3562 33.277 22.0114 33.3771C20.3276 33.8438 16.6336 33.7425 10.7669 27.8281Z" fill="white"/>
</svg>
