<svg width="42" height="53" viewBox="0 0 42 53" fill="none" xmlns="http://www.w3.org/2000/svg">
<rect width="42" height="53" fill="black" fill-opacity="0"/>
<rect width="42" height="53" fill="black" fill-opacity="0"/>
<path d="M8.6044 8.06973C8.87996 8.06973 9.28801 8.14287 9.66651 8.49266C11.0401 9.76146 12.42 11.0795 13.7539 12.3547C14.2913 12.8682 14.8292 13.3818 15.3677 13.8943L18.2969 16.6805C20.0975 18.3934 21.8976 20.1063 23.7004 21.816C24.6722 22.7377 25.6741 23.4049 26.7631 23.8554C27.46 24.1437 28.1536 24.29 28.8261 24.29C30.0081 24.29 31.1261 23.8326 32.0584 22.9677C32.6702 22.4001 33.2419 21.7106 33.7117 20.9749C34.162 20.2701 34.5875 19.5493 34.9992 18.8523C35.4579 18.0749 35.8913 17.3408 36.3601 16.62C36.7766 15.9787 37.4396 15.6109 38.1781 15.6109C38.6971 15.6109 39.1991 15.7927 39.6288 16.1362C40.4966 16.8299 40.6708 18.0425 40.0527 19.084C39.009 20.8425 37.9353 22.6253 36.897 24.3499L35.6739 26.383L35.1972 27.1785C34.6508 28.0911 34.0854 29.035 33.519 29.9477C33.0302 30.7342 32.9943 31.5625 33.4134 32.4089C33.8125 33.2156 34.2074 34.0487 34.589 34.8548C34.8577 35.4224 35.127 35.9901 35.4004 36.5555C37.2401 40.3587 35.8644 44.463 32.1291 46.3148C29.0441 47.8438 25.9428 49.3352 22.9122 50.7476C21.9689 51.1869 20.9691 51.4101 19.9407 51.4101C17.7358 51.4101 15.6422 50.349 14.3114 48.5985C16.0149 47.4129 16.851 45.9915 16.964 44.0798C18.3808 43.9038 19.5955 43.2912 20.5842 42.2513C21.6189 41.1633 22.188 39.8701 22.2693 38.4487C22.6219 38.401 22.9882 38.331 23.3556 38.2139C25.3769 37.5699 26.8809 35.962 27.3787 33.912C27.8775 31.8588 27.2778 29.7314 25.7749 28.2225C24.687 27.1292 23.5562 26.0597 22.463 25.0246C22.0386 24.6229 21.6141 24.2217 21.1918 23.8183C18.3698 21.1233 15.5466 18.4299 12.724 15.736L9.07686 12.2556C8.90952 12.0955 8.74007 11.9371 8.57114 11.7791C8.20426 11.4352 7.85744 11.1103 7.52857 10.7732C6.90514 10.1351 6.88349 9.18218 7.47789 8.55626C7.77668 8.24251 8.17629 8.06973 8.6044 8.06973ZM8.6044 6.47977C7.77192 6.47977 6.94578 6.81313 6.33238 7.45919C5.15572 8.69883 5.17684 10.6359 6.39889 11.8867C6.91094 12.4109 7.45625 12.9022 7.98677 13.4083C12.0251 17.2624 16.064 21.1154 20.1012 24.9705C21.6236 26.4243 23.1704 27.8547 24.6553 29.3466C27.0128 31.7146 26.0542 35.6864 22.8768 36.6986C22.161 36.9265 21.3718 36.9218 20.5853 37.0283C20.8925 38.543 20.5705 39.9639 19.4393 41.1532C18.5007 42.14 17.3573 42.5428 16.0872 42.5428C15.8343 42.5428 15.5762 42.5269 15.3138 42.4962C15.6791 45.2495 14.8567 46.672 12.1286 48.0415C12.2579 48.2858 12.3772 48.5375 12.5192 48.775C14.1335 51.4678 16.9835 53 19.9407 53C21.1617 53 22.4012 52.7387 23.5789 52.1897C26.6803 50.7444 29.7642 49.2599 32.8301 47.7404C37.351 45.4991 39.0349 40.4287 36.8252 35.8607C36.1558 34.4764 35.5139 33.0788 34.8319 31.7009C34.6645 31.3627 34.6635 31.1089 34.8625 30.7887C35.5989 29.6021 36.311 28.4006 37.03 27.2034C38.4928 24.7686 39.9635 22.3391 41.413 19.897C42.4377 18.1708 42.0903 16.0704 40.6154 14.8912C39.8822 14.305 39.0228 14.0194 38.1781 14.0194C36.9608 14.0194 35.7726 14.6119 35.0335 15.7503C34.106 17.1776 33.2952 18.6812 32.3788 20.1158C31.9887 20.7269 31.5141 21.3073 30.9836 21.7996C30.3274 22.4086 29.6016 22.6995 28.8266 22.6995C28.3568 22.6995 27.8691 22.5925 27.367 22.3852C26.391 21.9814 25.5485 21.3809 24.7883 20.6601C22.0085 18.0234 19.2339 15.3793 16.4567 12.7395C14.5537 10.9306 12.667 9.10374 10.7386 7.32245C10.1247 6.75536 9.36192 6.47977 8.6044 6.47977Z" fill="#602C8D"/>
<path d="M7.31811 27.7804C7.40098 27.7873 7.74305 27.8705 8.06348 28.1726L9.58326 29.6051C12.1287 32.0044 14.7613 34.4858 17.3305 36.9423C17.9392 37.5237 17.9608 38.5031 17.3791 39.1248C17.0634 39.4619 16.6522 39.6479 16.2214 39.6479C15.8318 39.6479 15.465 39.4974 15.1614 39.2128C13.2663 37.4378 11.3496 35.6184 9.49616 33.8588C8.69008 33.0935 7.884 32.3282 7.07739 31.5645C6.92853 31.423 6.77755 31.2841 6.62657 31.1447C6.3943 30.9306 6.17471 30.7282 5.96725 30.5225C5.47737 30.0355 5.3322 29.3444 5.58822 28.719C5.91657 27.9171 6.80183 27.7851 7.31811 27.7804ZM7.34133 26.1904C5.74712 26.1925 4.59844 26.9552 4.12334 28.1143C3.62238 29.337 3.89952 30.7059 4.85288 31.653C5.22187 32.0192 5.61251 32.3632 5.98994 32.7209C8.68586 35.2739 11.3712 37.838 14.0809 40.3756C14.6995 40.9548 15.4618 41.2378 16.2214 41.2378C17.0623 41.2378 17.8996 40.8907 18.533 40.2139C19.6991 38.9679 19.6796 36.9926 18.4227 35.7912C15.3462 32.8497 12.2443 29.9343 9.14776 27.014C8.55494 26.4549 7.83121 26.1994 7.34133 26.1904Z" fill="#602C8D"/>
<path d="M12.3099 22.1937C12.6029 22.1937 13.0442 22.2785 13.4808 22.6824C14.2631 23.4063 15.0507 24.161 15.8124 24.8908C16.1783 25.2412 16.5441 25.5915 16.9115 25.9413C17.4125 26.4177 17.9134 26.8947 18.4139 27.3717C19.6407 28.5409 20.9086 29.7498 22.1698 30.9301C22.7953 31.5157 23.0587 31.9142 23.0545 32.8486C23.0387 33.0982 22.8354 33.5832 22.1645 33.89C21.8984 34.0114 21.6472 34.0734 21.4186 34.0734C21.1092 34.0734 20.8258 33.9552 20.5528 33.7125C19.5409 32.8136 18.5363 31.848 17.5645 30.9142C17.1628 30.5283 16.7616 30.1425 16.3572 29.7593L15.5163 28.9617C14.1163 27.6346 12.7169 26.307 11.3222 24.9746C10.8287 24.5029 10.6766 24.0466 10.8134 23.4487C11.025 22.5223 11.7519 22.1937 12.3099 22.1937ZM12.3094 20.6038C10.93 20.6038 9.62983 21.519 9.26982 23.0931C8.99901 24.2771 9.36114 25.2957 10.23 26.1262C11.905 27.7273 13.5879 29.3205 15.2692 30.9152C16.6755 32.2497 18.0544 33.6166 19.5029 34.9034C20.083 35.4185 20.7366 35.6634 21.4181 35.6634C21.8773 35.6634 22.3492 35.5521 22.8196 35.3374C24.0258 34.7863 24.6065 33.774 24.6376 32.89C24.6529 31.3042 24.0353 30.5024 23.2493 29.7667C21.4883 28.1185 19.7484 26.4479 18 24.7864C16.8518 23.6947 15.7164 22.5891 14.554 21.5132C13.8825 20.8915 13.0838 20.6032 12.3094 20.6038Z" fill="#602C8D"/>
<path d="M3.29512 34.6595C3.42128 34.6595 3.80558 34.6595 4.42479 35.2499C6.35421 37.0916 8.28575 38.9307 10.2178 40.7697L10.6871 41.2165C10.8555 41.3771 11.026 41.5361 11.1965 41.6951C11.4515 41.9331 11.707 42.1705 11.9546 42.4148C12.6651 43.116 12.7205 44.097 12.0865 44.7468C11.7851 45.0563 11.4077 45.2195 10.9954 45.2195C10.5683 45.2195 10.1402 45.0372 9.79128 44.7065C8.85111 43.8161 7.91306 42.9231 6.97501 42.0295C5.49006 40.6155 3.95445 39.1538 2.43308 37.7244C1.61222 36.9533 1.51297 36.4684 1.61908 35.9352C1.77744 35.136 2.38557 34.6584 3.25816 34.6584H3.27136H3.28456L3.29512 34.6595ZM3.29512 33.0695C3.28561 33.0695 3.27558 33.0695 3.26608 33.0695C3.25869 33.0695 3.25183 33.0695 3.24444 33.0695C1.61222 33.0695 0.369045 34.0908 0.064983 35.6257C-0.205822 36.9888 0.398079 37.9915 1.35039 38.8862C3.81297 41.1996 6.25075 43.54 8.70383 45.8635C9.37108 46.4952 10.1893 46.81 10.9949 46.81C11.8041 46.81 12.6007 46.4926 13.2178 45.8592C14.4662 44.5793 14.4034 42.603 13.0647 41.2812C12.644 40.8662 12.2048 40.4708 11.7772 40.0633C9.6894 38.0758 7.60108 36.0883 5.51593 34.0977C4.86716 33.4787 4.13182 33.0695 3.29512 33.0695Z" fill="#602C8D"/>
<path d="M35.158 6.50586C34.899 6.50586 34.6232 6.59679 34.36 6.78418C33.3645 7.49315 32.3792 8.2155 31.3916 8.93554C31.2419 9.04493 31.0833 9.15386 30.9638 9.29233C30.6541 9.65189 30.5737 10.0618 30.7848 10.4993C30.9824 10.9092 31.3321 11.1017 31.8961 11.1529C32.0626 11.0749 32.3443 10.9881 32.5722 10.827C33.6207 10.0858 34.66 9.3311 35.6918 8.56675C36.2916 8.12226 36.406 7.48576 36.014 6.95035C35.7996 6.65818 35.4928 6.50586 35.158 6.50586Z" fill="#602C8D"/>
<path d="M17.0867 2.23662C16.9131 2.23662 16.7383 2.31029 16.5865 2.45709C16.2015 2.82968 16.053 3.5706 16.3304 4.14829C16.9851 5.51089 17.6709 6.84381 18.3655 8.1656C18.5111 8.44225 18.7605 8.57634 19.0091 8.57634C19.1318 8.57634 19.2544 8.54401 19.3645 8.47988C19.6815 8.29598 19.9043 7.81157 19.9047 7.16392C19.8722 7.04838 19.8352 6.7818 19.7351 6.57881C19.0937 5.28882 18.4475 4.00307 17.7832 2.73746C17.6077 2.40356 17.3483 2.23662 17.0867 2.23662Z" fill="#602C8D"/>
<path d="M29.7025 1.28474C29.3518 1.28474 29.0341 1.56617 28.8528 2.09192C28.5507 2.96799 28.2755 3.86102 27.9883 4.74663C27.8201 5.26549 27.6333 5.77481 27.487 6.30479C27.2242 7.25665 27.629 8.11205 28.3242 8.11576C28.6819 8.11205 28.9839 7.93398 29.1346 7.48243C29.6308 5.99952 30.1294 4.51661 30.5841 3.00986C30.8024 2.28589 30.5218 1.58737 30.0092 1.3547C29.9056 1.30753 29.8029 1.28474 29.7025 1.28474Z" fill="#602C8D"/>
<path d="M23.531 0C23.2092 0 22.9376 0.208815 22.7796 0.611607C22.6726 0.883491 22.6355 1.24759 22.6556 1.56029C22.7516 3.04478 22.8685 4.52716 22.9968 6.00742C23.0612 6.7441 23.4592 7.22639 23.9421 7.22639C23.9729 7.22639 24.0045 7.22427 24.0356 7.22056C24.5711 7.15219 24.8949 6.59783 24.8802 5.68254C24.8487 5.2771 24.8123 4.78262 24.7713 4.28867C24.6808 3.20749 24.5995 2.12472 24.4917 1.04673C24.4333 0.46268 24.1407 0.123487 23.721 0.0233195C23.6562 0.00794983 23.5926 0 23.531 0Z" fill="#602C8D"/>
</svg>
