<svg width="49" height="48" viewBox="0 0 49 48" fill="none" xmlns="http://www.w3.org/2000/svg">
<rect width="49" height="48" fill="black" fill-opacity="0"/>
<rect width="49" height="48" fill="black" fill-opacity="0"/>
<path d="M29.0674 28.1378V47.9999H48.9996V28.1378H29.0674ZM47.3386 46.3447H39.864V35.9254L43.4269 39.4758L44.5979 38.3089L39.0335 32.7641L33.4608 38.3172L34.6318 39.4841L38.203 35.9254V46.3447H30.7284V29.793H47.3386V46.3447Z" fill="#5D2C8D"/>
<path d="M23.2542 38.8965H1.66102V1.65517H46.5085V25.6552C46.5085 26.1103 46.8822 26.4828 47.339 26.4828C47.7958 26.4828 48.1695 26.1103 48.1695 25.6552V0.827586C48.1695 0.372414 47.7958 0 47.339 0H0.830508C0.373729 0 0 0.372414 0 0.827586V39.7241C0 40.1793 0.373729 40.5517 0.830508 40.5517H23.2542C23.711 40.5517 24.0847 40.1793 24.0847 39.7241C24.0847 39.269 23.711 38.8965 23.2542 38.8965Z" fill="#5D2C8D"/>
<path d="M25.7619 25.4317C25.7619 23.7269 27.3731 22.3366 29.358 22.3366C30.2882 22.3366 31.1768 22.6511 31.8578 23.2221C32.2067 23.52 32.7299 23.4704 33.0289 23.1228C33.1867 22.9324 33.2365 22.7007 33.2116 22.4773C33.2116 22.4524 33.2282 22.4276 33.2282 22.4028V12.4717V11.2717V8.33382C33.2282 8.09382 33.1285 7.87037 32.9458 7.71313C32.7631 7.55589 32.5306 7.4814 32.2897 7.51451L17.3406 9.47589C16.9253 9.53382 16.618 9.8814 16.618 10.2952V13.2331V14.4331V26.3752C15.6463 25.5311 14.3341 25.0097 12.8807 25.0097C9.90751 25.0097 7.48242 27.1945 7.48242 29.8842C7.48242 32.5738 9.8992 34.7586 12.8724 34.7586C15.8456 34.7586 18.2707 32.5738 18.2707 29.8842V15.1531L31.5589 13.4152V21.1449C30.8695 20.8552 30.1221 20.6814 29.3497 20.6814C26.4512 20.6814 24.0926 22.8083 24.0926 25.4317C24.0926 26.7145 24.649 27.9145 25.6623 28.8166C25.82 28.9573 26.0194 29.0235 26.2104 29.0235C26.4429 29.0235 26.6672 28.9324 26.8333 28.7504C27.1406 28.4111 27.1073 27.8897 26.7668 27.5835C26.119 26.9959 25.7619 26.2345 25.7619 25.4317ZM12.8724 33.1035C10.8128 33.1035 9.13513 31.6635 9.13513 29.8842C9.13513 28.1049 10.8128 26.6649 12.8724 26.6649C14.9321 26.6649 16.6097 28.1049 16.6097 29.8842C16.6097 31.6635 14.9321 33.1035 12.8724 33.1035ZM18.2707 13.4897V13.2331V11.0235L31.5589 9.28554V11.28V11.7517L18.2707 13.4897Z" fill="#5D2C8D"/>
</svg>
