<svg width="164" height="166" viewBox="0 0 164 166" fill="none" xmlns="http://www.w3.org/2000/svg">
<rect width="164" height="166" fill="black" fill-opacity="0"/>
<path d="M25.5654 87.7878C25.5654 116.802 48.616 140.349 77.3245 140.98H77.534C77.534 140.98 77.534 140.98 77.7436 140.98C77.9531 140.98 78.3722 140.98 78.5818 140.98C107.919 140.98 131.598 117.012 131.598 87.7878C131.598 58.5636 107.919 34.5955 78.5818 34.5955C78.3722 34.5955 77.9531 34.5955 77.7436 34.5955H77.534C48.8256 35.016 25.5654 58.7738 25.5654 87.7878ZM29.7564 89.8903H47.5683C47.7778 102.505 50.7115 112.387 54.4834 119.745C51.5497 121.007 48.8256 122.689 46.311 124.791C36.6716 115.961 30.3851 103.767 29.7564 89.8903ZM76.4863 136.144C73.343 134.673 66.4278 130.678 60.5604 121.637C65.3801 119.955 70.6188 119.115 76.4863 118.904V136.144ZM67.6851 135.514C61.1891 134.042 55.1121 131.099 49.6638 127.314C51.7593 125.842 54.0643 124.371 56.5789 123.319C60.1413 128.786 64.1228 132.781 67.6851 135.514ZM80.6773 135.724V118.904C86.3352 119.115 91.3644 119.745 95.9745 121.007C90.7357 129.627 84.4492 133.832 80.6773 135.724ZM99.956 122.478C102.89 123.74 105.614 125.212 107.919 126.894C102.261 131.309 95.3458 134.462 88.0116 135.934C89.8975 134.462 91.7835 132.781 93.879 130.678C95.9745 128.365 98.07 125.842 99.956 122.478ZM80.6773 114.699V89.8903H104.357C104.147 101.664 101.632 110.705 98.2796 117.433C92.8312 115.751 87.1734 114.91 80.6773 114.699ZM80.6773 85.6853V60.666C86.9638 60.4558 92.8312 59.6148 97.8605 57.9328C101.423 64.6607 103.937 73.7013 104.147 85.6853H80.6773ZM80.6773 56.4611V39.8516C84.2396 41.7438 90.5262 45.9488 95.7649 54.3586C91.3644 55.6201 86.3352 56.2508 80.6773 56.4611ZM88.0116 39.6414C95.3458 41.1131 102.051 44.0565 107.709 48.4717C105.195 50.1537 102.68 51.6254 99.7464 52.8869C96.184 46.7897 91.7835 42.3746 88.0116 39.6414ZM76.4863 39.2209V56.4611C70.6188 56.2508 65.1705 55.4098 60.3509 53.9381C66.2183 44.6873 73.343 40.6926 76.4863 39.2209ZM56.5789 52.4664C54.0643 51.4152 51.7593 49.9434 49.4542 48.4717C54.693 44.477 60.77 41.5336 67.4756 40.0619C65.7992 41.3233 63.9132 43.0053 62.0273 44.8975C60.3509 47 58.4649 49.3127 56.5789 52.4664ZM76.4863 60.666V85.6853H51.9688C52.1784 73.491 54.9025 64.4504 58.4649 57.5123C63.7037 59.4045 69.7806 60.4558 76.4863 60.666ZM76.4863 89.8903V114.91C69.7806 115.12 63.9132 116.171 58.4649 118.063C54.9025 111.125 52.1784 102.085 51.9688 89.8903H76.4863ZM111.481 124.16C108.548 122.058 105.404 120.376 102.051 118.904C105.614 111.756 108.338 102.295 108.548 89.8903H127.617C126.988 103.346 120.911 115.54 111.481 124.16ZM127.407 85.6853H108.338C108.128 73.2808 105.404 63.8197 101.842 56.4611C105.195 54.9894 108.338 53.3074 111.062 51.2049C120.701 59.825 126.988 72.0193 127.407 85.6853ZM46.1014 51.2049C48.616 53.0971 51.3402 54.7791 54.4834 56.0406C50.9211 63.189 47.9874 72.8603 47.7778 85.6853H29.7564C30.3851 72.0193 36.6716 59.6148 46.1014 51.2049Z" fill="white"/>
<path d="M4.19102 87.1569C4.19102 51.2048 29.5467 20.5088 64.7512 13.7809L58.2551 21.3498C57.4169 22.1908 57.6265 23.6625 58.4647 24.2932C58.8838 24.7137 59.3029 24.7137 59.9315 24.7137C60.5602 24.7137 61.1888 24.5035 61.6079 24.083L71.0377 12.9399C71.4568 12.5194 71.6664 11.8887 71.4568 11.4682C71.2473 11.0477 71.2473 10.417 70.8282 9.99646L59.722 0.535371C58.8838 -0.305615 57.6265 -0.0953678 56.7883 0.745618C55.9501 1.5866 56.1596 3.05833 56.9978 3.68907L63.913 9.57597C26.8225 16.7243 0 49.1023 0 87.1569C0 96.4077 1.67641 105.448 4.61012 114.068C4.81967 114.909 5.65787 115.54 6.49607 115.54C6.70562 115.54 6.91518 115.54 7.12473 115.33C8.17248 114.909 8.80113 113.648 8.38203 112.597C5.65787 104.607 4.19102 95.9872 4.19102 87.1569Z" fill="white"/>
<path d="M135.789 135.304C130.131 142.032 123.635 147.498 116.091 151.913C85.0776 169.995 45.8916 163.267 22.4219 135.935L31.8517 137.827C32.8995 138.037 34.1568 137.196 34.3663 136.145C34.5759 135.094 33.7377 133.832 32.6899 133.622L18.4404 130.889C17.8118 130.889 17.3927 130.889 16.9736 131.309C16.5545 131.73 16.1354 132.15 16.1354 132.571L13.4112 146.868C13.2017 147.919 14.0399 149.18 15.0876 149.39C15.2972 149.39 15.2972 149.39 15.5067 149.39C16.5545 149.39 17.3927 148.76 17.6022 147.709L19.2787 138.668C34.5759 156.539 56.5787 166 78.7911 166C92.2023 166 105.823 162.636 118.187 155.488C126.15 150.862 133.274 144.975 139.142 137.827C139.98 136.986 139.77 135.514 138.932 134.883C137.675 134.463 136.418 134.463 135.789 135.304Z" fill="white"/>
<path d="M161.564 110.074L152.972 113.017C165.336 77.2754 150.877 37.7491 117.977 18.8269C110.014 14.2015 101.423 11.0478 92.4122 9.36581C91.1549 9.15556 90.1071 9.99655 89.8976 11.0478C89.688 12.099 90.5262 13.3605 91.574 13.5707C100.166 15.0425 108.338 17.9859 115.882 22.4011C146.895 40.4823 160.726 77.9061 148.991 111.756L145.638 102.505C145.219 101.454 143.962 100.823 142.914 101.243C141.866 101.664 141.238 102.925 141.657 103.977L146.476 117.643C146.686 118.484 147.524 119.114 148.362 119.114C148.572 119.114 148.781 119.114 148.991 118.904L162.612 114.069C163.659 113.648 164.288 112.387 163.869 111.335C163.869 110.284 162.612 109.653 161.564 110.074Z" fill="white"/>
</svg>
