<svg width="51" height="46" viewBox="0 0 51 46" fill="none" xmlns="http://www.w3.org/2000/svg">
<rect width="50.9545" height="45.3333" fill="black" fill-opacity="0"/>
<path d="M9.38654 13H28.1593C28.7144 13 29.1649 12.552 29.1649 12C29.1649 11.4473 28.7144 11 28.1593 11H9.38654C8.8314 11 8.38086 11.4473 8.38086 12C8.38086 12.552 8.8314 13 9.38654 13Z" fill="#602C8D"/>
<path d="M9.38654 19H28.1593C28.7144 19 29.1649 18.552 29.1649 18C29.1649 17.4473 28.7144 17 28.1593 17H9.38654C8.8314 17 8.38086 17.4473 8.38086 18C8.38086 18.552 8.8314 19 9.38654 19Z" fill="#602C8D"/>
<path d="M42.2385 11H35.534C34.9789 11 34.5283 11.4473 34.5283 12C34.5283 12.552 34.9789 13 35.534 13H42.2385C42.7937 13 43.2442 12.552 43.2442 12C43.2442 11.4473 42.7937 11 42.2385 11Z" fill="#602C8D"/>
<path d="M42.2385 17H35.534C34.9789 17 34.5283 17.4473 34.5283 18C34.5283 18.552 34.9789 19 35.534 19H42.2385C42.7937 19 43.2442 18.552 43.2442 18C43.2442 17.4473 42.7937 17 42.2385 17Z" fill="#602C8D"/>
<path d="M40.7072 28.7407C40.8962 28.8873 41.0182 29.0427 41.1021 29.216C41.1859 29.3893 41.2321 29.5887 41.2328 29.8313C41.2328 30.3833 41.6833 30.8313 42.2385 30.8313C42.7936 30.8313 43.2442 30.3833 43.2442 29.8313C43.2442 29.3213 43.1389 28.8147 42.917 28.354C42.5864 27.6593 41.9944 27.094 41.2502 26.736C40.8151 26.5253 40.323 26.3853 39.7886 26.2987V26C39.7886 25.4473 39.3381 25 38.7829 25C38.2278 25 37.7773 25.4473 37.7773 26V26.2533C37.3844 26.3053 37.017 26.3907 36.6851 26.5167C35.8604 26.8253 35.2409 27.3647 34.8621 27.97C34.48 28.5767 34.3217 29.2313 34.3211 29.8313C34.3184 30.452 34.4719 31.0333 34.7663 31.5073C35.0217 31.9233 35.3683 32.242 35.7344 32.4807C36.3794 32.8973 37.0813 33.1073 37.7612 33.2893C37.7665 33.2907 37.7712 33.292 37.7759 33.2933V37.0187C37.371 36.9267 37.0545 36.7767 36.84 36.5953C36.5027 36.302 36.3385 35.9587 36.3318 35.4767C36.3318 34.924 35.8812 34.4767 35.3261 34.4767C34.771 34.4767 34.3204 34.924 34.3204 35.4767C34.313 36.498 34.7596 37.4727 35.54 38.1213C36.1393 38.6253 36.9077 38.936 37.7759 39.054V39.3373C37.7759 39.89 38.2265 40.3373 38.7816 40.3373C39.3367 40.3373 39.7873 39.89 39.7873 39.3373V39.0193C40.4698 38.922 41.1215 38.7387 41.7035 38.3813C42.1594 38.0987 42.5643 37.6993 42.8352 37.196C43.1087 36.6933 43.2435 36.1047 43.2421 35.4767C43.2435 34.8227 43.1007 34.222 42.8204 33.718C42.5777 33.2773 42.2391 32.9247 41.8731 32.6567C41.2268 32.1867 40.5094 31.9433 39.8168 31.7473C39.8061 31.7447 39.7973 31.7427 39.7866 31.7393V28.3367C40.1929 28.4373 40.5027 28.5807 40.7072 28.7407ZM36.7542 30.7493C36.602 30.6347 36.5135 30.5287 36.4471 30.402C36.3827 30.2733 36.3338 30.1073 36.3324 29.832C36.3318 29.4993 36.4571 29.0933 36.7582 28.7907C36.911 28.6367 37.1102 28.496 37.3998 28.3853C37.5098 28.3433 37.6378 28.3087 37.7773 28.2793V31.2127C37.3321 31.072 36.97 30.9167 36.7542 30.7493ZM40.3853 34.0827C40.6904 34.244 40.8855 34.412 41.0129 34.6033C41.1383 34.7967 41.2294 35.0373 41.2328 35.476C41.2314 35.834 41.1624 36.0687 41.0672 36.2453C40.9948 36.378 40.9043 36.4853 40.7762 36.588C40.5871 36.74 40.3035 36.8767 39.9254 36.97C39.8838 36.9807 39.8309 36.984 39.788 36.9933V33.8333C40.0112 33.91 40.2164 33.9907 40.3853 34.0827Z" fill="#602C8D"/>
<path d="M26.8186 28H10.7277C9.25272 28 8.0459 29.2 8.0459 30.6667V34.6667C8.0459 36.1333 9.25272 37.3333 10.7277 37.3333H26.8186C28.2936 37.3333 29.5004 36.1333 29.5004 34.6667V30.6667C29.5004 29.2 28.2936 28 26.8186 28ZM27.4891 34.6667C27.4891 35.028 27.182 35.3333 26.8186 35.3333H10.7277C10.3643 35.3333 10.0573 35.028 10.0573 34.6667V30.6667C10.0573 30.3053 10.3643 30 10.7277 30H26.8186C27.182 30 27.4891 30.3053 27.4891 30.6667V34.6667Z" fill="#602C8D"/>
<path d="M48.2727 0H42.9091V1.33333C42.9091 2.07 42.3084 2.66667 41.5682 2.66667C40.828 2.66667 40.2273 2.07 40.2273 1.33333V0H34.8636V1.33333C34.8636 2.07 34.2629 2.66667 33.5227 2.66667C32.7825 2.66667 32.1818 2.07 32.1818 1.33333V0H26.8182V1.33333C26.8182 2.07 26.2175 2.66667 25.4773 2.66667C24.7371 2.66667 24.1364 2.07 24.1364 1.33333V0H18.7727V1.33333C18.7727 2.07 18.172 2.66667 17.4318 2.66667C16.6916 2.66667 16.0909 2.07 16.0909 1.33333V0H10.7273V1.33333C10.7273 2.07 10.1265 2.66667 9.38636 2.66667C8.64618 2.66667 8.04545 2.07 8.04545 1.33333V0H2.68182C1.20682 0 0 1.2 0 2.66667V42.6667C0 44.1333 1.20682 45.3333 2.68182 45.3333H48.2727C49.7477 45.3333 50.9545 44.1333 50.9545 42.6667V2.66667C50.9545 1.2 49.7477 0 48.2727 0ZM48.9432 42.6667C48.9432 43.028 48.6361 43.3333 48.2727 43.3333H2.68182C2.31843 43.3333 2.01136 43.028 2.01136 42.6667V2.66667C2.01136 2.30533 2.31843 2 2.68182 2H6.10181C6.4129 3.51933 7.76789 4.66667 9.38636 4.66667C11.0048 4.66667 12.3605 3.51933 12.6709 2H14.1466C14.4577 3.51933 15.8127 4.66667 17.4311 4.66667C19.0496 4.66667 20.4053 3.51933 20.7157 2H22.1914C22.5025 3.51933 23.8575 4.66667 25.4759 4.66667C27.0944 4.66667 28.4501 3.51933 28.7605 2H30.2362C30.5472 3.51933 31.9022 4.66667 33.5207 4.66667C35.1392 4.66667 36.4949 3.51933 36.8053 2H38.2809C38.592 3.51933 39.947 4.66667 41.5655 4.66667C43.184 4.66667 44.5396 3.51933 44.8501 2H48.2727C48.6361 2 48.9432 2.30533 48.9432 2.66667V42.6667Z" fill="#602C8D"/>
</svg>
