<svg width="44" height="44" viewBox="0 0 44 44" fill="none" xmlns="http://www.w3.org/2000/svg">
<rect width="42.9351" height="42.9351" fill="black" fill-opacity="0" transform="translate(0.597412 0.467529)"/>
<rect width="42.9351" height="42.9351" fill="black" fill-opacity="0" transform="translate(0.597412 0.467529)"/>
<rect width="42.9351" height="42.9351" fill="black" fill-opacity="0" transform="translate(0.597412 0.467529)"/>
<rect width="42.9351" height="42.9351" fill="black" fill-opacity="0" transform="translate(0.597412 0.467529)"/>
<path d="M42.2444 25.6561C42.4591 24.4396 42.6022 23.2232 42.6022 22.0066C42.6022 10.772 33.4427 1.61244 22.2081 1.61244C20.9916 1.61244 19.7751 1.75558 18.5586 1.97026C16.7696 0.968411 14.766 0.467529 12.6908 0.467529C6.03583 0.467529 0.597412 5.90595 0.597412 12.5609C0.597412 14.5645 1.09829 16.6397 2.10014 18.4287C1.88546 19.6452 1.74232 20.8616 1.74232 22.0782C1.74232 33.3128 10.9018 42.4724 22.1365 42.4724C23.353 42.4724 24.5694 42.3292 25.786 42.1145C27.3602 42.9732 29.2923 43.4026 31.6537 43.4026C38.3087 43.4027 43.5325 38.1789 43.5325 31.524C43.5325 29.1625 43.1031 27.2305 42.2444 25.6561ZM31.6538 41.9715C29.4355 41.9715 27.7181 41.5421 26.2869 40.755L26.0722 40.6118L25.786 40.6833C24.5695 40.898 23.3531 41.0412 22.1366 41.0412C11.689 41.0412 3.1736 32.5257 3.1736 22.0782C3.1736 20.8616 3.31674 19.6452 3.53142 18.4287L3.60295 18.1425L3.45981 17.9278C2.52957 16.2819 2.02861 14.4215 2.02861 12.5609C2.02861 6.69313 6.823 1.89865 12.6908 1.89865C14.5514 1.89865 16.4119 2.39953 18.0577 3.32984L18.2724 3.47299L18.5586 3.40146C19.7751 3.18678 20.9916 3.04364 22.2081 3.04364C32.6557 3.04364 41.1711 11.5591 41.1711 22.0066C41.1711 23.2232 41.0279 24.4396 40.8132 25.6561L40.7417 25.9423L40.8848 26.157C41.672 27.5882 42.1014 29.3056 42.1014 31.5239C42.1013 37.3918 37.5216 41.9715 31.6538 41.9715Z" fill="white"/>
<path d="M23.9257 18.5003C18.5588 17.4269 17.7717 16.0673 17.7001 15.7095C17.557 15.2086 17.9148 14.7793 18.2726 14.493C19.2029 13.7058 21.4212 13.0618 23.3533 13.4196C24.0689 13.5627 25.0707 13.9205 25.5716 14.7792C26.7881 17.1406 28.0762 19.0012 30.7238 18.3571C31.5825 18.1425 32.2265 17.57 32.6559 16.7113C33.1568 15.5663 33.1568 13.992 32.5127 12.7756C31.7972 11.416 28.7201 7.90955 22.7092 7.90955C16.9845 7.90955 10.4012 9.98477 10.4012 15.8525C10.4012 20.5039 14.48 23.7956 21.5643 24.7974C25.1422 25.2983 26.2871 26.4433 26.645 27.0873C26.8596 27.5167 26.8596 27.946 26.7165 28.3754C26.144 29.7349 24.2119 31.023 21.2065 30.7368C17.7717 30.379 16.6268 27.302 16.4121 26.658C15.8396 24.869 13.9075 24.5827 12.9057 24.6543C12.4049 24.7259 11.2599 25.0837 10.5443 26.1571C10.115 26.8011 9.68561 28.0176 10.3296 29.8781C11.1168 32.3111 13.7644 36.3184 22.5661 36.3184C29.9366 36.3184 34.3733 31.667 34.4448 27.3735C34.4448 22.6506 31.2247 19.9315 23.9257 18.5003ZM22.4945 34.8872C16.6268 34.8872 12.7626 32.9551 11.6176 29.4487C11.2598 28.3754 11.2598 27.5167 11.6891 26.9442C12.1185 26.3717 12.7625 26.0855 13.0487 26.0855C13.0487 26.0855 13.1202 26.0855 13.2634 26.0855C13.6927 26.0855 14.7661 26.157 14.9093 27.0157C15.1955 27.8029 16.6267 31.667 20.9202 32.0964C24.7128 32.4542 27.1458 30.6652 27.9329 28.8047C28.2907 27.946 28.2191 27.0158 27.7898 26.2286C27.2173 25.1552 25.643 23.7956 21.7073 23.2231C17.9863 22.6506 11.7607 21.0048 11.7607 15.7095C11.7607 10.9151 17.6285 9.19768 22.6377 9.19768C27.933 9.19768 30.5806 12.1316 31.1531 13.2765C31.511 14.0637 31.5825 15.2086 31.2247 15.9958C31.01 16.4967 30.6522 16.783 30.2228 16.8545C28.9348 17.1407 28.1476 16.8545 26.6449 13.9922C26.0724 12.9188 24.9275 12.2032 23.4247 11.9169C21.2065 11.5591 18.4872 12.1316 17.1276 13.3481C16.2689 14.1353 15.9111 15.0655 16.1258 15.9958C16.6267 17.7132 18.9881 18.9297 23.4963 19.7884C31.7255 21.4343 32.8705 24.4397 32.8705 27.2305C32.8705 30.9515 29.0063 34.8872 22.4945 34.8872Z" fill="white"/>
</svg>
