<svg width="60" height="47" viewBox="0 0 60 47" fill="none" xmlns="http://www.w3.org/2000/svg">
<rect width="58" height="46" fill="black" fill-opacity="0" transform="translate(1)"/>
<rect width="17.5191" height="14.2036" fill="black" fill-opacity="0" transform="translate(21.2402 8.97046)"/>
<rect width="4.4876" height="4.46619" fill="black" fill-opacity="0" transform="translate(21.2402 8.97083)"/>
<path d="M21.1402 11.2039C21.1402 12.4907 22.1923 13.537 23.484 13.537L25.7278 11.2039H25.8278C25.8278 11.2039 25.8278 11.2039 25.8278 11.2039C25.8278 9.91713 24.7764 8.87083 23.484 8.87083C22.1923 8.87083 21.1402 9.9165 21.1402 11.2039ZM22.416 11.2039C22.416 10.6188 22.8944 10.1414 23.484 10.1414C24.0737 10.1414 24.5521 10.6182 24.5521 11.2039C24.5521 11.7896 24.0737 12.2664 23.484 12.2664C22.8944 12.2664 22.416 11.789 22.416 11.2039Z" fill="#602C8D" stroke="#602C8D" stroke-width="0.2"/>
<rect width="4.4876" height="4.46619" fill="black" fill-opacity="0" transform="translate(34.2715 8.97046)"/>
<path d="M34.1715 11.2036C34.1715 12.4903 35.2229 13.5366 36.5153 13.5366C37.8071 13.5366 38.8591 12.4903 38.8591 11.2036C38.8591 9.91678 37.8071 8.87046 36.5153 8.87046C35.2235 8.87046 34.1715 9.91613 34.1715 11.2036ZM35.4472 11.2036C35.4472 10.6185 35.9257 10.1411 36.5153 10.1411C37.1043 10.1411 37.5834 10.6179 37.5834 11.2036C37.5834 11.7892 37.1043 12.266 36.5153 12.266C35.9263 12.266 35.4472 11.7886 35.4472 11.2036Z" fill="#602C8D" stroke="#602C8D" stroke-width="0.2"/>
<rect width="12.4991" height="5.21706" fill="black" fill-opacity="0" transform="translate(23.75 17.9569)"/>
<path d="M25.0317 19.1956L25.1006 19.2681C25.2073 19.1667 25.3465 19.1112 25.4928 19.1112C25.6504 19.1112 25.7956 19.1732 25.9031 19.2855L25.9032 19.2856C26.8903 20.3137 28.3468 20.8747 29.9993 20.8747C31.6513 20.8747 33.109 20.3138 34.0962 19.2856L34.0962 19.2855C34.3035 19.0691 34.6799 19.0594 34.8986 19.2679L34.8987 19.268C35.0084 19.3724 35.07 19.5121 35.0738 19.6632C35.0775 19.8137 35.022 19.956 34.917 20.0653C33.7185 21.3125 31.9739 22.0034 29.9993 22.0034C28.0248 22.0034 26.2802 21.3131 25.0824 20.0661C24.978 19.9568 24.9223 19.8137 24.9256 19.6628C24.9288 19.5122 24.9908 19.3726 25.1007 19.268L25.0317 19.1956ZM25.0317 19.1956C24.9027 19.3183 24.8294 19.4832 24.8256 19.6607C24.8218 19.8382 24.8876 20.0069 25.0102 20.1353L34.9676 19.1956C34.7089 18.9489 34.2694 18.9602 34.024 19.2163C33.059 20.2215 31.6291 20.7747 29.9993 20.7747C28.369 20.7747 26.9404 20.2215 25.9753 19.2163C25.8488 19.0842 25.6774 19.0112 25.4928 19.0112C25.3208 19.0112 25.157 19.0766 25.0317 19.1956ZM26.8253 18.4069L26.8252 18.4068L24.2197 18.349C24.2197 18.349 24.2197 18.349 24.2197 18.349C23.8641 18.6877 23.6619 19.144 23.6505 19.6338C23.6391 20.1238 23.8206 20.5895 24.1609 20.9435C25.6069 22.4483 27.6818 23.274 30 23.274C32.3181 23.274 34.3931 22.4483 35.8384 20.9435C36.5415 20.2118 36.5154 19.048 35.7802 18.349C35.0724 17.6746 33.8515 17.7033 33.1747 18.4069L33.1746 18.4069C32.4373 19.1749 31.3128 19.6035 30 19.6035C28.6871 19.6035 27.5626 19.1749 26.8253 18.4069Z" fill="#602C8D" stroke="#602C8D" stroke-width="0.2"/>
<rect width="47.4422" height="30.7668" fill="black" fill-opacity="0" transform="translate(6.28613)"/>
<rect x="7.03613" y="0.75" width="45.9422" height="29.2668" rx="2.25" stroke="#602C8D" stroke-width="1.5"/>
<rect x="9.67188" y="3.38716" width="40.6709" height="23.9925" rx="1.25" stroke="#602C8D" stroke-width="1.5"/>
<rect width="58" height="14.05" fill="black" fill-opacity="0" transform="translate(1 31.95)"/>
<path d="M5.4682 33.7489L5.4682 33.749L1.60796 39.5759C1.60796 39.5759 1.60795 39.5759 1.60795 39.5759C0.737594 40.8894 0.665624 42.5024 1.4149 43.8875C2.16416 45.2725 3.55644 46.1 5.1367 46.1H54.8633C56.4436 46.1 57.8358 45.2725 58.5851 43.8875C59.3344 42.5024 59.2624 40.8894 58.392 39.5759L54.5318 33.749C53.7442 32.5603 52.4189 31.85 50.9885 31.85H9.01149C7.58044 31.85 6.2558 32.5603 5.4682 33.7489ZM2.6727 40.2755L2.67271 40.2755L6.53294 34.4485C7.08415 33.6168 8.01026 33.1206 9.01149 33.1206H50.9898C51.991 33.1206 52.9177 33.6169 53.4683 34.4485L53.4683 34.4485L57.3285 40.2754C57.9361 41.1932 57.9862 42.3168 57.4631 43.2844C56.9393 44.2527 55.9689 44.8294 54.8639 44.8294H5.13733C4.03236 44.8294 3.06133 44.252 2.53818 43.2844L2.53816 43.2844C2.01441 42.3168 2.06449 41.1932 2.6727 40.2755Z" fill="#602C8D" stroke="#602C8D" stroke-width="0.2"/>
</svg>
