<svg width="26" height="26" viewBox="0 0 26 26" fill="none" xmlns="http://www.w3.org/2000/svg">
<rect width="25.3164" height="25.1215" fill="black" fill-opacity="0"/>
<path d="M0.371455 24.7529C0.618281 24.9983 0.942514 25.121 1.26626 25.121C1.59001 25.121 1.91424 24.9983 2.16106 24.7529L12.6582 14.337L23.1554 24.7534C23.4022 24.9988 23.7264 25.1215 24.0502 25.1215C24.3739 25.1215 24.6981 24.9988 24.945 24.7534C25.4396 24.263 25.4396 23.4674 24.945 22.9771L14.4483 12.5607L24.9455 2.14442C25.4401 1.65409 25.4401 0.858445 24.9455 0.368112C24.4518 -0.122704 23.6495 -0.122704 23.1554 0.368112L12.6582 10.7844L2.16106 0.368595C1.66741 -0.122221 0.865107 -0.122221 0.370969 0.368595C-0.123656 0.858928 -0.123656 1.65457 0.370969 2.14491L10.8686 12.5607L0.371455 22.9771C-0.12317 23.4674 -0.12317 24.2625 0.371455 24.7529Z" fill="#602C8D"/>
</svg>
