<svg width="56" height="27" viewBox="0 0 56 27" fill="none" xmlns="http://www.w3.org/2000/svg">
<path d="M51.7747 0H17.153C15.1493 0 13.4711 1.38664 13.0382 3.23994H15.1148V3.25777L29.0278 14.0648L15.1148 23.8032H13.0487C13.4981 25.6342 15.1651 27 17.1523 27H51.7739C54.1045 27 56 25.1259 56 22.8215V4.17848C56.0008 1.87411 54.1045 0 51.7747 0ZM16.6404 1.99078C16.8058 1.95363 16.9756 1.9291 17.1523 1.9291H51.7739C51.946 1.9291 52.1129 1.95139 52.2737 1.98855L34.3331 15.7323L16.6404 1.99078ZM51.7747 25.0709H17.153C17.011 25.0709 16.8727 25.0546 16.7381 25.0293L30.6279 15.3072L33.7258 17.7134C33.9024 17.8509 34.1159 17.9185 34.3286 17.9185C34.539 17.9185 34.7502 17.8516 34.9261 17.7171L38.1796 15.224L52.1888 25.0293C52.0535 25.0546 51.916 25.0709 51.7747 25.0709ZM54.0497 22.8215C54.0497 23.1752 53.9595 23.5059 53.8122 23.8032L39.7925 13.9897L53.8332 3.23325C53.97 3.52158 54.0504 3.83963 54.0504 4.17774V22.8215H54.0497ZM15.3605 7.95569H5.68936C5.15049 7.95569 4.71383 7.52395 4.71383 6.99114C4.71383 6.45833 5.15049 6.02733 5.68936 6.02733H15.3605C15.8994 6.02733 16.3361 6.45907 16.3361 6.99114C16.3361 7.5232 15.8994 7.95569 15.3605 7.95569ZM15.3605 14.3033H0.975534C0.436661 14.3033 0 13.8716 0 13.3395C0 12.8067 0.436661 12.3757 0.975534 12.3757H15.3605C15.8994 12.3757 16.3361 12.8074 16.3361 13.3395C16.3361 13.8716 15.8994 14.3033 15.3605 14.3033ZM15.3605 20.6516H5.68936C5.15049 20.6516 4.71383 20.2199 4.71383 19.6871C4.71383 19.155 5.15049 18.7233 5.68936 18.7233H15.3605C15.8994 18.7233 16.3361 19.155 16.3361 19.6871C16.3361 20.2199 15.8994 20.6516 15.3605 20.6516Z" fill="white"/>
</svg>
